<svg width="153" height="41" viewBox="0 0 153 41" fill="none" xmlns="http://www.w3.org/2000/svg">
<path fill-rule="evenodd" clip-rule="evenodd" d="M0 4.91992H23.156H23.1572L30.2491 11.5925V19.1619H23.2991C21.932 14.4954 17.3886 11.0673 11.9937 11.0673H6.52781V16.2234C6.52781 21.296 10.1678 25.5697 15.1239 26.8582V33.4039H7.0919L0 26.7313V4.91992ZM30.2734 33.3916V29.0266C30.2734 26.6222 28.198 24.6694 25.6425 24.6694C23.0869 24.6694 21.0115 26.6222 21.0115 29.0266V29.0344C21.0115 31.4388 23.0869 33.3916 25.6425 33.3916H30.2734Z" fill="url(#paint0_linear_5801_2195)"/>
<path opacity="0.35" d="M6.52781 4.91992H0V11.0673H6.52781V4.91992Z" fill="#F7F7FA"/>
<path fill-rule="evenodd" clip-rule="evenodd" d="M67.8296 8.20068H62.2244V33.5202H67.8296V8.20068ZM113.604 8.20068H107.999V33.5202H113.604V20.9612L114.952 19.8361H119.731V33.5202H125.336V17.9656L122.065 14.8759H115.3L113.604 16.4506V8.20068ZM56.6705 9.76935H41.3683V33.5202H56.8481L60.1195 30.4304V23.8064L57.6894 21.5113L59.9428 19.383V12.8248L56.6705 9.76935ZM47.1503 19.5485V14.3291H54.1962V18.533L53.121 19.5485H47.1503ZM75.7256 14.8759H70.1203V30.4304L73.3917 33.5202H80.4419L82.206 31.8267V33.5202H87.2459V14.8759H81.6406V27.6024L80.5039 28.56H75.7256V14.8759ZM102.479 14.8759H92.5666L89.3314 17.9665V22.6006L100.498 28.3413V29.4611H94.5126V27.3918H89.2254V30.4304L92.4968 33.5202H102.797L106.068 30.4304V25.7951L94.866 20.0545V18.9349H100.428V21.2045H105.75V17.9656L102.479 14.8759ZM133.303 14.8759H127.698V33.5202H133.303V14.8759ZM140.843 14.8759H135.803V40.3956H141.409V33.5202H149.728L153 30.4304V17.9656L149.728 14.8759H142.607L140.843 16.5693V14.8759ZM141.409 20.7936L142.545 19.8361H147.359V28.6601H141.409V20.7936ZM47.1503 28.9605V23.6409H53.2953L54.3375 24.6542V28.9605H47.1503Z" fill="#F7F7FA"/>
<path d="M130.363 12.4293C130.363 9.49796 132.928 7.12084 136.09 7.12084C132.928 7.12084 130.363 4.7438 130.363 1.8125C130.363 4.7438 127.799 7.12084 124.636 7.12084C127.799 7.12084 130.363 9.49796 130.363 12.4293Z" fill="#16BAFF"/>
<defs>
<linearGradient id="paint0_linear_5801_2195" x1="-1.1773" y1="4.93901" x2="28.4283" y2="35.2266" gradientUnits="userSpaceOnUse">
<stop stop-color="#07B5FF"/>
<stop offset="0.307604" stop-color="#07B5FF"/>
<stop offset="0.475074" stop-color="#07B5FF"/>
<stop offset="0.728698" stop-color="#6FD4FF"/>
<stop offset="0.801097" stop-color="#40C6FF"/>
<stop offset="1" stop-color="#08B6FF"/>
</linearGradient>
</defs>
</svg>
