<svg width="208" height="88" viewBox="0 0 208 88" fill="none" xmlns="http://www.w3.org/2000/svg">
<rect x="0.5" y="0.5" width="207" height="87" rx="43.5" stroke="#1E1F35"/>
<path d="M86.8587 46.6911C86.8587 49.3974 86.89 52.1038 86.8274 54.8101C86.7961 56.8077 85.9821 58.483 84.6671 59.9328C83.1644 61.6082 81.2545 62.607 79.0943 62.8647C76.12 63.2513 73.3962 62.5747 71.142 60.4161C70.7663 60.0617 70.3593 59.6751 70.0775 59.224C69.7644 58.773 69.5766 59.224 69.4513 59.4173C68.9191 60.1906 68.199 60.7705 67.4476 61.286C64.0663 63.6379 59.3388 63.4768 56.0827 60.8994C53.8598 59.1274 52.764 56.8077 52.764 53.908C52.764 45.4668 52.764 37.0578 52.764 28.6166C52.764 27.779 52.764 27.779 53.6094 27.779C55.707 27.8112 57.7734 27.9723 59.7145 28.9388C61.9687 30.0665 63.0645 31.9351 63.2523 34.5448C64.5046 30.2598 67.2285 28.2945 71.5177 29.1321C74.1163 29.6476 75.9948 31.9029 76.4018 34.7059C76.5896 33.4172 76.8088 32.2251 77.4662 31.1941C78.562 29.4865 80.2214 28.6166 82.0999 28.1656C83.4774 27.8434 84.8863 27.7145 86.2952 27.7467C86.7961 27.7467 86.89 27.9078 86.89 28.3911C86.89 33.3527 86.89 38.3466 86.89 43.3082C86.89 43.5659 86.89 43.7915 86.9213 43.9526" fill="#2D2463"/>
<path d="M121.079 44.35C121.079 45.3282 121.079 46.3065 121.079 47.2532C120.922 48.1053 120.827 48.9573 120.639 49.8094C120.042 52.2709 118.973 54.5115 117.402 56.468C116.145 58.0459 114.7 59.3713 112.971 60.4127C111.149 61.5172 109.201 62.2746 107.127 62.6849C105.587 62.9689 104.047 63.032 102.539 62.9058C99.7421 62.6849 97.134 61.8013 94.7772 60.2549C91.7291 58.2668 89.4667 55.5529 88.1154 52.1762C87.5184 50.6615 87.0785 49.0836 87.0156 47.4426C87.0156 47.3164 87.0471 47.1586 86.9214 47.0323C86.9214 46.2119 86.9214 45.3598 86.9214 44.5393C87.1413 43.6241 87.1413 42.6774 87.3927 41.7622C88.1154 39.0483 89.3095 36.6184 91.1635 34.504C93.6774 31.6323 96.7883 29.802 100.465 29.013C102.633 28.5397 104.833 28.5397 107.064 28.9183C110.835 29.5811 114.008 31.3483 116.585 34.1253C118.91 36.6499 120.387 39.6163 120.922 43.0561C120.922 43.4979 120.859 43.9397 121.079 44.35Z" fill="#2D2463"/>
<path d="M155.173 46.6911C155.173 49.3974 155.205 52.1038 155.142 54.8101C155.111 56.8077 154.297 58.483 152.982 59.9328C151.479 61.6082 149.569 62.607 147.409 62.8647C144.435 63.2513 141.711 62.5747 139.457 60.4161C139.081 60.0617 138.674 59.6751 138.392 59.224C138.079 58.773 137.891 59.224 137.766 59.4173C137.234 60.1906 136.514 60.7705 135.762 61.286C132.381 63.6379 127.653 63.4768 124.397 60.8994C122.174 59.1274 121.079 56.8077 121.079 53.908C121.079 45.4668 121.079 37.0578 121.079 28.6166C121.079 27.779 121.079 27.779 121.924 27.779C124.022 27.8112 126.088 27.9723 128.029 28.9388C130.283 30.0665 131.379 31.9351 131.567 34.5448C132.819 30.2598 135.543 28.2945 139.832 29.1321C142.431 29.6476 144.309 31.9029 144.716 34.7059C144.904 33.4172 145.123 32.2251 145.781 31.1941C146.877 29.4865 148.536 28.6166 150.414 28.1656C151.792 27.8434 153.201 27.7145 154.61 27.7467C155.111 27.7467 155.205 27.9078 155.205 28.3911C155.205 33.3527 155.205 38.3466 155.205 43.3082C155.205 43.5659 155.205 43.7915 155.236 44.0492C155.173 45.0158 155.173 45.8534 155.173 46.6911Z" fill="#2D2463"/>
<mask id="mask0_527_9275" style="mask-type:luminance" maskUnits="userSpaceOnUse" x="52" y="28" width="35" height="35">
<path d="M86.7238 46.6353C86.7238 49.2919 86.7552 51.9485 86.6924 54.6051C86.661 56.5659 85.8454 58.2104 84.5279 59.6336C83.0221 61.2782 81.1085 62.2586 78.944 62.5116C75.9639 62.8911 73.2347 62.2269 70.976 60.108C70.5996 59.7601 70.1918 59.3806 69.9094 58.9378C69.5957 58.4951 69.4075 58.9378 69.282 59.1276C68.7487 59.8866 68.0272 60.4559 67.2744 60.9619C63.8864 63.2706 59.1495 63.1125 55.887 60.5824C53.6597 58.8429 52.5618 56.5659 52.5618 53.7195C52.5618 45.4335 52.5618 37.1791 52.5618 28.8931C52.5618 28.0708 52.5618 28.0708 53.4088 28.0708C55.5106 28.1024 57.581 28.2605 59.5259 29.2093C61.7846 30.3162 62.8825 32.1506 63.0708 34.7123C64.3256 30.506 67.0548 28.5768 71.3525 29.3991C73.9562 29.9051 75.8384 32.1189 76.2462 34.8704C76.4344 33.6054 76.654 32.4352 77.3128 31.4232C78.4107 29.747 80.0733 28.8931 81.9555 28.4503C83.3358 28.134 84.7475 28.0075 86.1591 28.0392C86.661 28.0392 86.7552 28.1973 86.7552 28.6717C86.7552 33.5421 86.7552 38.4441 86.7552 43.3146C86.7552 43.5676 86.7552 43.7889 86.7865 44.0419C86.7238 44.9907 86.7238 45.813 86.7238 46.6353Z" fill="white"/>
</mask>
<g mask="url(#mask0_527_9275)">
<path d="M158.247 105.08V25.3193C158.247 25.3193 147.707 20.6387 133.81 22.5679C112.604 25.5091 111.945 27.5648 84.2455 26.869C56.5458 26.1732 50.209 25.6672 50.209 25.6672V105.112H158.247V105.08Z" fill="#139BAC"/>
</g>
<mask id="mask1_527_9275" style="mask-type:luminance" maskUnits="userSpaceOnUse" x="86" y="28" width="35" height="35">
<path d="M120.886 43.947C120.886 44.9274 120.886 45.9078 120.886 46.8566C120.729 47.7105 120.635 48.5644 120.447 49.4183C119.851 51.8851 118.784 54.1306 117.215 56.0914C115.961 57.6727 114.518 59.001 112.792 60.0447C110.973 61.1516 109.028 61.9106 106.957 62.3217C105.42 62.6064 103.883 62.6696 102.377 62.5431C99.5855 62.3217 96.9818 61.4362 94.629 59.8865C91.5861 57.8941 89.3275 55.1743 87.9786 51.7903C87.3826 50.2722 86.9434 48.6909 86.8806 47.0464C86.8806 46.9199 86.912 46.7617 86.7865 46.6352C86.7865 45.8129 86.7865 44.959 86.7865 44.1368C87.0061 43.2196 87.0061 42.2708 87.2571 41.3537C87.9786 38.6338 89.1707 36.1986 91.0215 34.0797C93.5311 31.2017 96.6367 29.3674 100.307 28.5767C102.472 28.1024 104.667 28.1024 106.895 28.4819C110.659 29.146 113.828 30.9171 116.4 33.7002C118.721 36.2302 120.196 39.2031 120.729 42.6503C120.729 43.0931 120.666 43.5359 120.886 43.947Z" fill="white"/>
</mask>
<g mask="url(#mask1_527_9275)">
<path d="M158.247 105.08V25.3193C158.247 25.3193 147.707 20.6386 133.81 22.5678C112.604 25.509 111.945 27.5647 84.2455 26.8689C56.5458 26.1732 50.209 25.6672 50.209 25.6672V105.112H158.247V105.08Z" fill="#7A5DD1"/>
</g>
<mask id="mask2_527_9275" style="mask-type:luminance" maskUnits="userSpaceOnUse" x="121" y="28" width="35" height="35">
<path d="M155.173 46.6353C155.173 49.2919 155.205 51.9485 155.142 54.6051C155.11 56.5659 154.295 58.2104 152.977 59.6336C151.472 61.2782 149.558 62.2586 147.393 62.5116C144.413 62.8911 141.684 62.2269 139.425 60.108C139.049 59.7601 138.641 59.3806 138.359 58.9378C138.045 58.4951 137.857 58.9378 137.731 59.1276C137.198 59.8866 136.477 60.4559 135.724 60.9619C132.336 63.2706 127.599 63.1125 124.336 60.5824C122.109 58.8429 121.011 56.5659 121.011 53.7195C121.011 45.4335 121.011 37.1791 121.011 28.8931C121.011 28.0708 121.011 28.0708 121.858 28.0708C123.96 28.1024 126.03 28.2605 127.975 29.2093C130.234 30.3162 131.332 32.1506 131.52 34.7123C132.775 30.506 135.504 28.5768 139.802 29.3991C142.406 29.9051 144.288 32.1189 144.696 34.8704C144.884 33.6054 145.103 32.4352 145.762 31.4232C146.86 29.747 148.523 28.8931 150.405 28.4503C151.785 28.134 153.197 28.0075 154.609 28.0392C155.11 28.0392 155.205 28.1973 155.205 28.6717C155.205 33.5421 155.205 38.4441 155.205 43.3146C155.205 43.5676 155.205 43.7889 155.236 44.0419C155.173 44.9907 155.173 45.813 155.173 46.6353Z" fill="white"/>
</mask>
<g mask="url(#mask2_527_9275)">
<path d="M158.247 105.08V25.3193C158.247 25.3193 147.707 20.6387 133.81 22.5679C112.604 25.5091 111.945 27.5648 84.2455 26.869C56.5458 26.1732 50.209 25.6672 50.209 25.6672V105.112H158.247V105.08Z" fill="#D9535E"/>
</g>
</svg>
