<svg width="208" height="88" viewBox="0 0 208 88" fill="none" xmlns="http://www.w3.org/2000/svg">
<rect x="0.5" y="0.5" width="207" height="87" rx="43.5" stroke="#1E1F35"/>
<path fill-rule="evenodd" clip-rule="evenodd" d="M103.138 19.6129H101.212V21.5776H99.2854V23.5422H97.3593V25.5068V27.4715H99.2854H101.212H103.138V25.5068L101.212 25.5068V23.5422V21.5776H103.138V19.6129ZM91.0305 31.9621H89.1043V33.9267H87.1781V35.8914V37.856H85.252V39.8207V41.7853V43.75V45.7146L83.3258 45.7146V47.6793V49.6439V51.6085V53.5732V55.5378V57.5025V59.4671V61.4318V63.3964H85.252V65.361H87.1781V67.3257H89.1043H91.0305H92.9566V65.361H91.0305H89.1043L87.1781 65.361V63.3964L85.252 63.3964V61.4318V59.4671V57.5025V55.5378V53.5732V51.6085V49.6439V47.6793V45.7146H87.1781V43.75V41.7853V39.8207V37.856H89.1043V35.8914V33.9267H91.0305V35.8914H92.9566V33.9267H91.0305V31.9621ZM116.071 31.9621H114.144V33.9267H112.218H110.292H108.366H106.44V35.8914H108.366H110.292H112.218H114.144V33.9267H116.071V35.8914H117.997V37.856H116.071V39.8207H117.997V41.7853H119.923V43.75V44.592H117.997H116.071H114.144H112.218V46.5566H110.292V48.5212H108.366V50.4859H110.292H112.218V52.4505V54.4152L110.292 54.4152V52.4505V50.4859H108.366H106.44H104.514V48.5212H102.587V46.5566H100.661V44.592H98.7351H96.809H94.8828V46.5566H92.9566V48.5212H94.8828V50.4859H92.9566V52.4505V54.4152H94.8828V56.3798H92.9566V58.3445H94.8828V60.3091L96.809 60.3091H98.7351V62.2737H100.661H102.587H104.514H106.44V60.3091V58.3445H104.514H102.587V56.3798V54.4152H104.514V56.3798H106.44V54.4152H104.514V52.4505H106.44H108.366V54.4152H106.44V56.3798V58.3445H108.366V60.3091H106.44V62.2737H108.366H110.292H112.218H114.144V60.3091L116.071 60.3091H117.997H119.923V58.3445H121.849V59.4671V61.4318V63.3964V65.361H119.923H117.997V67.3257H116.071H114.144H112.218H110.292H108.366H106.44V69.2903H108.366H110.292H112.218H114.144H116.071H117.997V67.3257L119.923 67.3257H121.849V65.361L123.775 65.361V63.3964V61.4318V59.4671V57.5025V55.5378V53.5732H121.849V51.6085H123.775V49.6439V47.6793V45.7146L121.849 45.7146V43.75V41.7853V39.8207H119.923V37.856V35.8914L117.997 35.8914V33.9267H116.071V31.9621ZM114.144 48.5212V46.5566H116.071H117.997L119.923 46.5566V47.6793H121.849V49.6439V51.6085L119.923 51.6085V50.4859H117.997V48.5212H116.071H114.144ZM114.144 50.4859V48.5212H112.218V50.4859H114.144ZM117.997 54.4152L119.923 54.4152V53.5732H121.849V55.5378V56.3798H119.923V58.3445H117.997H116.071H114.144V56.3798L116.071 56.3798H117.997V54.4152ZM114.144 54.4152V52.4505V50.4859H116.071V52.4505H117.997V54.4152H116.071L114.144 54.4152ZM114.144 54.4152V56.3798H112.218V54.4152H114.144ZM110.292 58.3445V56.3798V54.4152L108.366 54.4152V56.3798V58.3445H110.292ZM110.292 58.3445V60.3091H112.218V58.3445H110.292ZM100.661 54.4152H102.587V52.4505V50.4859H100.661V48.5212H98.7351V46.5566H96.809H94.8828V48.5212H96.809H98.7351V50.4859H100.661V52.4505V54.4152ZM98.7351 56.3798H100.661V54.4152H98.7351V52.4505H96.809V50.4859H94.8828V52.4505V54.4152H96.809H98.7351V56.3798ZM98.7351 56.3798V58.3445H96.809H94.8828V56.3798H96.809H98.7351ZM92.9566 67.3257H94.8828H96.809H98.7351H100.661H102.587H104.514H106.44V69.2903H104.514H102.587H100.661H98.7351H96.809H94.8828H92.9566V67.3257ZM89.1043 50.4859H91.0305V52.4505V54.4152H89.1043V52.4505V50.4859ZM91.0305 54.4152H92.9566V56.3798H91.0305V54.4152ZM92.9566 48.5212H91.0305V50.4859H92.9566V48.5212ZM107.265 37.856H109.191V39.8207H107.265V37.856ZM109.191 39.8207H111.118H113.044V41.7853H111.118H109.191V39.8207ZM99.2854 29.4361V27.4715H101.212H103.138H105.064V29.4361V31.4008H103.138H101.212V29.4361H99.2854ZM106.99 27.4715H105.064V29.4361H106.99V27.4715ZM106.99 25.5068H108.916V27.4715H106.99V25.5068ZM94.8828 35.8914H92.9566V37.856H94.8828V35.8914ZM94.8828 35.8914V33.9267H96.809H98.7351H100.661H102.587H104.514H106.44V35.8914H104.514H102.587H100.661H98.7351H96.809L94.8828 35.8914Z" fill="#F7F7FA"/>
</svg>
