<svg width="208" height="88" viewBox="0 0 208 88" fill="none" xmlns="http://www.w3.org/2000/svg">
<rect x="0.5" y="0.5" width="207" height="87" rx="43.5" stroke="#1E1F35"/>
<g clip-path="url(#clip0_445_3596)">
<path d="M79.969 24.5291H75.3503L68.3482 31.9335V24.5291H64.658V42.556H68.3482V36.2178L70.2596 34.3088L76.107 42.556H80.6126L72.8069 31.8237L79.969 24.5291Z" fill="#F7F7FA"/>
<path d="M87.0059 24.5291H83.3157V42.556H87.0059V24.5291Z" fill="#F7F7FA"/>
<path d="M97.8819 24.5292H90.8604V42.5602H96.8833C98.1689 42.5908 99.4533 42.4591 100.706 42.1682C101.594 41.9306 102.424 41.5116 103.144 40.9373C104.119 40.1332 104.868 39.0875 105.317 37.9035C105.84 36.5116 106.094 35.0322 106.066 33.5447C106.066 30.5108 105.39 28.2465 104.038 26.7517C102.685 25.257 100.633 24.5162 97.8819 24.5292ZM101.151 37.9466C100.371 38.8521 99.1458 39.2989 97.4333 39.2989H94.4726V27.7003H97.8819C99.4007 27.7003 100.518 28.1733 101.233 29.1193C101.948 30.0652 102.306 31.5456 102.306 33.5603C102.306 35.5751 101.921 37.0372 101.151 37.9466Z" fill="#F7F7FA"/>
<path d="M56.3915 37.7228C56.3188 37.5086 56.287 37.2825 56.2979 37.0564V33.0034C56.3117 32.7067 56.2468 32.4117 56.1097 32.1485C55.9726 31.8854 55.7683 31.6637 55.5177 31.5061C54.8213 31.1194 54.0298 30.9399 53.2357 30.9887C52.476 30.943 51.7242 31.1648 51.1097 31.6158C50.8541 31.8208 50.6503 32.0835 50.5148 32.3825C50.3792 32.6814 50.3157 33.0083 50.3295 33.3366V33.4699H52.1005V33.3641C52.0955 33.2371 52.1213 33.1108 52.1757 32.9961C52.23 32.8814 52.3113 32.7817 52.4126 32.7055C52.675 32.5377 52.9838 32.4581 53.2942 32.4782C53.6038 32.4526 53.9141 32.518 54.1875 32.6663C54.2812 32.738 54.3551 32.8324 54.4022 32.9408C54.4493 33.0492 54.468 33.168 54.4566 33.2857C54.4566 33.6463 54.0666 33.8814 53.2474 33.9873C52.9314 34.0265 52.6739 34.0618 52.4672 34.0931C51.797 34.1475 51.1577 34.3998 50.6299 34.8182C50.4353 35.0227 50.2853 35.2656 50.1892 35.5315C50.0932 35.7973 50.0533 36.0804 50.072 36.3627C50.0336 36.9735 50.2338 37.5753 50.6299 38.0403C50.8394 38.2451 51.0892 38.4035 51.3633 38.5055C51.6374 38.6075 51.9297 38.6505 52.2214 38.6322C52.692 38.6442 53.1587 38.5434 53.5828 38.3382C53.968 38.1468 54.2932 37.8525 54.523 37.4876C54.5256 37.6499 54.5452 37.8115 54.5815 37.9698C54.6148 38.1066 54.6659 38.2384 54.7336 38.3618H56.7036V38.0403C56.5655 37.9747 56.455 37.8623 56.3915 37.7228ZM54.48 35.5396C54.4896 35.7553 54.4555 35.9708 54.3797 36.1729C54.304 36.375 54.1881 36.5597 54.0392 36.7155C53.876 36.8655 53.6846 36.9812 53.4763 37.0559C53.268 37.1306 53.0469 37.1628 52.8261 37.1506C52.5773 37.1651 52.3327 37.0822 52.1434 36.9192C52.0576 36.8399 51.9901 36.7427 51.9456 36.6344C51.9011 36.526 51.8808 36.4092 51.886 36.2921C51.8742 36.0753 51.9453 35.8621 52.0849 35.6963C52.2889 35.5186 52.5369 35.3994 52.8027 35.3513L53.4268 35.2142C53.7944 35.1364 54.1527 35.0194 54.4957 34.8653L54.48 35.5396Z" fill="#F7F7FA"/>
<path d="M116.497 36.6452C116.383 36.7531 116.25 36.8371 116.104 36.8922C115.958 36.9474 115.802 36.9727 115.646 36.9667C115.439 36.9749 115.233 36.9276 115.05 36.8299C114.867 36.7321 114.714 36.5872 114.605 36.4101C114.341 35.9317 114.216 35.3883 114.246 34.8422C114.207 34.2629 114.327 33.684 114.593 33.1684C114.703 32.9895 114.859 32.8434 115.044 32.7455C115.229 32.6476 115.437 32.6015 115.646 32.6118C115.956 32.5963 116.259 32.7049 116.489 32.9136C116.717 33.1496 116.856 33.4593 116.879 33.7878H118.767C118.756 33.401 118.669 33.0203 118.509 32.6682C118.35 32.3161 118.122 31.9997 117.838 31.7377C117.217 31.2261 116.429 30.9649 115.627 31.0047C115.166 30.98 114.706 31.0582 114.279 31.2338C113.852 31.4093 113.469 31.6778 113.157 32.0199C112.52 32.8055 112.2 33.803 112.26 34.8147C112.201 35.8267 112.513 36.8253 113.138 37.6212C113.441 37.9605 113.816 38.2274 114.235 38.4023C114.654 38.5773 115.107 38.656 115.56 38.6326C116.378 38.6665 117.177 38.3862 117.795 37.8486C118.389 37.2898 118.741 36.5206 118.779 35.7045H116.906C116.87 36.0531 116.727 36.3818 116.497 36.6452Z" fill="#F7F7FA"/>
<path d="M126.069 37.7228C125.998 37.5083 125.967 37.2822 125.979 37.0564V33.0034C125.993 32.7068 125.928 32.4119 125.791 32.1488C125.653 31.8858 125.449 31.664 125.199 31.5061C124.503 31.1194 123.711 30.9399 122.917 30.9887C122.157 30.9437 121.406 31.1654 120.791 31.6158C120.536 31.8208 120.332 32.0835 120.196 32.3825C120.061 32.6814 119.997 33.0083 120.011 33.3366V33.4699H121.79V33.3641C121.784 33.2378 121.808 33.1119 121.861 32.9973C121.914 32.8826 121.994 32.7825 122.094 32.7055C122.356 32.5377 122.665 32.4581 122.976 32.4782C123.285 32.4526 123.596 32.518 123.869 32.6663C123.963 32.7379 124.037 32.8324 124.084 32.9408C124.131 33.0492 124.149 33.168 124.138 33.2857C124.138 33.6463 123.748 33.8814 122.929 33.9873C122.613 34.0265 122.355 34.0618 122.149 34.0931C121.476 34.1467 120.834 34.399 120.303 34.8182C120.109 35.0227 119.959 35.2656 119.863 35.5315C119.767 35.7973 119.727 36.0804 119.746 36.3627C119.707 36.9735 119.907 37.5753 120.303 38.0403C120.513 38.2449 120.763 38.4032 121.037 38.5051C121.311 38.6071 121.603 38.6504 121.895 38.6322C122.362 38.6423 122.824 38.5416 123.245 38.3382C123.631 38.1474 123.958 37.8531 124.189 37.4876C124.191 37.6499 124.211 37.8115 124.247 37.9698C124.281 38.1066 124.332 38.2384 124.399 38.3618H126.377V38.0403C126.241 37.974 126.132 37.8617 126.069 37.7228ZM124.158 35.5396C124.167 35.7553 124.133 35.9708 124.057 36.1729C123.981 36.375 123.866 36.5597 123.717 36.7155C123.554 36.8655 123.362 36.9812 123.154 37.0559C122.946 37.1306 122.724 37.1628 122.504 37.1506C122.255 37.165 122.01 37.0822 121.821 36.9192C121.735 36.8399 121.668 36.7427 121.623 36.6344C121.579 36.526 121.558 36.4092 121.564 36.2921C121.552 36.0753 121.623 35.8621 121.762 35.6963C121.96 35.5154 122.203 35.3909 122.465 35.3357L123.089 35.1985C123.456 35.1213 123.815 35.0043 124.158 34.8497V35.5396Z" fill="#F7F7FA"/>
<path d="M129.735 28.7113H127.836V38.3735H129.735V28.7113Z" fill="#F7F7FA"/>
<path d="M133.543 28.7113H131.643V38.3735H133.543V28.7113Z" fill="#F7F7FA"/>
<path d="M138.345 30.9889C137.891 30.9666 137.437 31.0457 137.017 31.2205C136.597 31.3954 136.22 31.6617 135.915 32.0002C135.293 32.7739 134.978 33.751 135.029 34.7441C134.974 35.763 135.295 36.7667 135.931 37.5623C136.234 37.9081 136.611 38.181 137.034 38.3607C137.457 38.5405 137.914 38.6226 138.372 38.6011C139.13 38.6238 139.874 38.3997 140.494 37.9622C141.083 37.5332 141.498 36.9058 141.665 36.1944H139.772C139.673 36.4405 139.5 36.6499 139.277 36.794C139.033 36.9331 138.755 37.001 138.474 36.99C138.276 37.0063 138.077 36.9781 137.892 36.9076C137.706 36.8371 137.539 36.726 137.401 36.5824C137.133 36.2165 136.996 35.7704 137.011 35.3164H141.743C141.743 35.2536 141.743 35.1909 141.743 35.1204C141.743 35.0498 141.743 34.9518 141.743 34.8185C141.743 33.5917 141.446 32.6509 140.854 31.9885C140.532 31.6491 140.142 31.384 139.709 31.2114C139.275 31.0388 138.81 30.9629 138.345 30.9889ZM136.995 34.0581C137.004 33.6567 137.15 33.2707 137.409 32.9645C137.534 32.8329 137.686 32.7298 137.854 32.6622C138.022 32.5946 138.203 32.564 138.384 32.5725C138.572 32.562 138.761 32.5915 138.937 32.6591C139.113 32.7266 139.273 32.8307 139.407 32.9645C139.666 33.2696 139.805 33.6604 139.796 34.062L136.995 34.0581Z" fill="#F7F7FA"/>
<path d="M147.821 32.1293C147.602 31.7773 147.295 31.4883 146.932 31.2905C146.554 31.0933 146.133 30.9937 145.707 31.0004C145.297 30.9943 144.893 31.0881 144.527 31.2738C144.162 31.4595 143.846 31.7316 143.608 32.0666C143.036 32.8731 142.75 33.8486 142.793 34.8379C142.746 35.8191 143.034 36.7872 143.608 37.5818C143.853 37.9143 144.174 38.1828 144.545 38.3643C144.914 38.5458 145.322 38.635 145.734 38.6244C146.153 38.634 146.567 38.5341 146.936 38.3343C147.311 38.1064 147.629 37.792 147.861 37.4171V38.3814H149.662V28.7113H147.821V32.1293ZM147.431 36.4136C147.301 36.6003 147.124 36.7502 146.919 36.8491C146.715 36.9479 146.488 36.9923 146.261 36.9781C146.034 36.9903 145.808 36.9447 145.603 36.8453C145.399 36.7459 145.222 36.5961 145.09 36.4097C144.795 35.913 144.659 35.3368 144.7 34.7595C144.671 34.2136 144.816 33.6727 145.114 33.2151C145.24 33.0381 145.408 32.8951 145.603 32.7987C145.798 32.7024 146.013 32.6555 146.23 32.6624C146.454 32.6528 146.678 32.6977 146.882 32.7932C147.085 32.8887 147.263 33.0321 147.399 33.2112C147.708 33.6731 147.854 34.2245 147.817 34.7791C147.853 35.3513 147.715 35.9209 147.423 36.4136H147.431Z" fill="#F7F7FA"/>
</g>
<g clip-path="url(#clip1_445_3596)">
<path d="M76.6593 54.1121C77.3286 53.816 77.89 53.319 78.2665 52.6892C78.6477 51.9887 78.8336 51.1979 78.8049 50.4001C78.8049 48.9184 78.3237 47.7869 77.3615 47.0055C76.3993 46.2242 75.0002 45.8322 73.1642 45.8296H64.7031V63.8605H72.895C74.9755 63.8605 76.5878 63.3836 77.7321 62.4298C78.8763 61.476 79.4446 60.121 79.4368 58.365C79.4674 57.4381 79.2274 56.5224 78.7464 55.7309C78.2358 54.9858 77.5061 54.4196 76.6593 54.1121ZM68.2451 48.9693H72.4347C73.3826 48.9693 74.0653 49.1183 74.4748 49.4162C74.6871 49.5866 74.8542 49.8071 74.961 50.0581C75.0679 50.3091 75.1113 50.5828 75.0873 50.8547C75.1107 51.1354 75.0653 51.4175 74.9552 51.6765C74.845 51.9355 74.6734 52.1634 74.4554 52.3403C74.0341 52.6565 73.3683 52.8146 72.4581 52.8146H68.2451V48.9693ZM74.8766 60.0466C74.4046 60.4385 73.6557 60.6072 72.6258 60.6072H68.2451V55.9034H72.5907C73.6557 55.9034 74.4202 56.0916 74.8806 56.46C75.3409 56.8284 75.5749 57.4399 75.5749 58.2788C75.602 58.6083 75.5522 58.9396 75.4297 59.2465C75.3071 59.5534 75.1151 59.8273 74.8689 60.0466H74.8766Z" fill="#F7F7FA"/>
<path d="M85.9159 55.8955H94.5017V52.8145H85.9159V48.9692H95.3053V45.8373H82.2764V63.8643H95.7461V60.5365H85.9159V55.8955Z" fill="#F7F7FA"/>
<path d="M105.085 45.8373L98.7029 63.8683H102.604L103.774 60.1602H110.733L111.95 63.8683H115.804L109.337 45.8373H105.085ZM104.745 57.1066L107.222 49.4474L109.727 57.1066H104.745Z" fill="#F7F7FA"/>
<path d="M130.238 54.4177C129.783 54.1649 129.305 53.955 128.811 53.7905C128.261 53.6063 127.332 53.3437 126.025 53.0066L124.734 52.6969C122.695 52.2396 121.669 51.5275 121.656 50.5606C121.641 50.2462 121.705 49.933 121.841 49.6495C121.977 49.3661 122.182 49.1214 122.437 48.9379C123.105 48.5203 123.886 48.3217 124.672 48.3695C125.58 48.3118 126.482 48.5526 127.242 49.0554C127.545 49.2933 127.792 49.5955 127.965 49.9405C128.137 50.2855 128.232 50.6646 128.241 51.0506H131.799C131.734 49.2397 131.111 47.8364 129.93 46.8408C128.749 45.8452 127.114 45.3474 125.023 45.3474C122.779 45.3474 121.065 45.8151 119.882 46.7506C118.698 47.6861 118.107 49.0293 118.107 50.7801C118.084 51.6219 118.255 52.4574 118.606 53.2222C118.925 53.8968 119.426 54.4674 120.053 54.8684C120.768 55.3284 121.962 55.7412 123.634 56.1071L124.024 56.1894L124.133 56.2169C127.254 56.9328 128.815 57.8383 128.815 58.9332C128.832 59.2633 128.766 59.5922 128.622 59.8897C128.479 60.1871 128.264 60.4432 127.995 60.6345C127.449 61.0265 126.642 61.2067 125.573 61.2067C124.313 61.2067 123.349 60.9715 122.686 60.4934C122.343 60.2324 122.057 59.9018 121.849 59.5229C121.641 59.1441 121.514 58.7256 121.477 58.2944H117.837C117.936 60.2386 118.627 61.7359 119.909 62.7864C121.191 63.8369 122.961 64.3595 125.218 64.3543C127.509 64.3543 129.283 63.8317 130.539 62.7864C131.795 61.7411 132.424 60.2869 132.427 58.4237C132.451 57.5842 132.263 56.7521 131.881 56.0052C131.495 55.3296 130.925 54.7788 130.238 54.4177Z" fill="#F7F7FA"/>
<path d="M134.194 45.8373V49.0555H139.515V63.8643H143.209V49.0555H148.495V45.8373H134.194Z" fill="#F7F7FA"/>
</g>
<defs>
<clipPath id="clip0_445_3596">
<rect width="108.764" height="18.9677" fill="white" transform="translate(49.1685 24.129)"/>
</clipPath>
<clipPath id="clip1_445_3596">
<rect width="84.4944" height="19.871" fill="white" transform="translate(64.4495 44.9032)"/>
</clipPath>
</defs>
</svg>
