<svg width="208" height="88" viewBox="0 0 208 88" fill="none" xmlns="http://www.w3.org/2000/svg">
<rect x="0.5" y="0.5" width="207" height="87" rx="43.5" stroke="#1E1F35"/>
<path d="M51.3955 53.5062H44.9192L40.1797 36.2718H45.6296L48.1181 48.7449H48.434L51.3955 36.2718H56.6472L51.3955 53.5062Z" fill="white"/>
<path d="M67.4101 48.365L60.401 48.3518C60.5188 48.9033 60.8347 49.4136 61.3097 49.7285C61.8631 50.0433 62.495 50.1998 63.1662 50.1606C64.4693 50.0824 65.7332 49.885 66.9969 49.4919L67.2961 49.3857L66.6025 53.3088C65.2994 53.6627 63.9963 53.8601 62.6538 53.8601C60.4422 53.8601 58.7053 53.2696 57.4808 52.0887C56.2561 50.9076 55.6243 49.2945 55.5849 47.2491C55.5849 45.2038 56.1777 43.5906 57.3629 42.4096C58.5482 41.2286 60.1673 40.6381 62.2202 40.6381C63.9981 40.6381 65.3405 41.1094 66.3276 42.0147C67.3148 42.92 67.7896 44.2184 67.7896 45.8706C67.7896 46.4611 67.6999 47.0796 67.5822 47.67L67.4158 48.3612L67.4101 48.365ZM63.3625 45.3621C63.3625 44.4177 62.968 43.9464 62.1771 43.9464C61.19 43.9464 60.5973 44.576 60.3992 45.8352L63.3213 45.8948L63.3606 45.364L63.3625 45.3621Z" fill="white"/>
<path d="M80.3927 48.365L73.3836 48.3518C73.5014 48.9033 73.8173 49.4136 74.2922 49.7285C74.8456 50.0433 75.4776 50.1998 76.1487 50.1606C77.4518 50.0824 78.7157 49.885 79.9795 49.4919L80.2786 49.3857L79.585 53.3088C78.2819 53.6627 76.9788 53.8601 75.6364 53.8601C73.4246 53.8601 71.6879 53.2696 70.4633 52.0887C69.2386 50.9076 68.6067 49.2945 68.5675 47.2491C68.5675 45.2038 69.1601 43.5906 70.3454 42.4096C71.5308 41.2286 73.1499 40.6381 75.2027 40.6381C76.9807 40.6381 78.3231 41.1094 79.3102 42.0147C80.2973 42.92 80.7722 44.2184 80.7722 45.8706C80.7722 46.4611 80.6825 47.0796 80.5647 47.67L80.3983 48.3612L80.3927 48.365ZM76.345 45.3621C76.345 44.4177 75.9506 43.9464 75.1597 43.9464C74.1725 43.9464 73.5799 44.576 73.3816 45.8352L76.3039 45.8948L76.3432 45.364L76.345 45.3621Z" fill="white"/>
<path d="M123.016 48.4155L116.007 48.4023C116.124 48.9538 116.441 49.4641 116.915 49.779C117.469 50.0938 118.101 50.2503 118.772 50.2111C120.075 50.1329 121.339 49.9355 122.603 49.5424L122.902 49.4363L122.208 53.3593C120.905 53.7132 119.602 53.9106 118.26 53.9106C116.048 53.9106 114.311 53.3201 113.086 52.1392C111.862 50.9581 111.23 49.345 111.191 47.2997C111.191 45.2543 111.783 43.6411 112.969 42.4601C114.154 41.2791 115.773 40.6886 117.826 40.6886C119.604 40.6886 120.946 41.1599 121.933 42.0652C122.92 42.9705 123.395 44.2689 123.395 45.9211C123.395 46.5116 123.306 47.1302 123.188 47.7207L123.021 48.4117L123.016 48.4155ZM118.968 45.4126C118.968 44.4682 118.574 43.9969 117.783 43.9969C116.796 43.9969 116.203 44.6265 116.005 45.8857L118.927 45.9453L118.966 45.4145L118.968 45.4126Z" fill="white"/>
<path d="M87.5718 40.3644L87.4933 43.4734L92.8105 43.4082L92.3916 47.6833L87.4148 47.605L87.6129 53.5473H82.2416V36.2737L94.1996 36.2886L93.7733 40.5227L87.5737 40.3663L87.5718 40.3644Z" fill="white"/>
<path d="M103.211 40.9548L103.246 46.124L102.697 45.7552C102.42 45.5987 102.065 45.5186 101.749 45.5577C101.315 45.5577 100.88 45.6751 100.485 45.8334C100.051 46.0309 99.6158 46.2656 99.2605 46.5804L99.4587 53.5063H94.2855L94.3248 41.1895L99.2605 40.8747V43.2348H99.498C100.248 41.6608 101.229 40.8505 102.532 40.8505C102.917 40.8318 103.013 40.9119 103.209 40.9511L103.211 40.9548Z" fill="white"/>
<path d="M108.977 34.776C109.45 35.2883 109.688 35.957 109.648 36.6258C109.688 37.3728 109.411 38.0825 108.938 38.632C108.424 39.1443 107.713 39.4181 106.963 39.379C106.292 39.4181 105.582 39.1815 105.107 38.7102C104.634 38.198 104.436 37.5292 104.475 36.8214C104.436 36.0744 104.713 35.3256 105.225 34.8152C105.737 34.3048 106.449 34.0291 107.199 34.0682C107.831 34.0682 108.502 34.3048 108.977 34.776ZM104.475 41.2287L109.688 40.9139L109.648 53.5455H104.436L104.475 41.2287Z" fill="white"/>
<path d="M132.197 53.5064L132.474 46.4631C132.474 45.3623 132.04 44.85 131.21 44.85C130.776 44.85 130.341 44.9674 129.946 45.204V47.8789L130.144 53.4672H124.893L124.932 41.1505L129.868 40.8357V42.6855H130.066C130.935 41.7802 131.986 41.1897 133.169 40.7948C134.532 40.5638 135.555 41.0332 136.265 41.6218C136.976 42.2906 137.37 43.235 137.292 44.2186L137.37 53.4262L132.197 53.5045V53.5064Z" fill="white"/>
<path d="M151.273 47.9199L151.312 49.533C151.312 49.6895 151.312 49.8478 151.391 50.0043C151.43 50.0825 151.548 50.1608 151.667 50.1217C151.824 50.1217 151.983 50.0825 152.101 50.0435L152.501 49.913L151.944 52.9941C151.194 53.4654 150.325 53.741 149.456 53.7802C148.902 53.741 148.39 53.5436 147.954 53.2287C147.52 52.8749 146.73 51.8913 146.73 51.8913C146.019 52.6383 145.585 53.5753 144.202 53.741C142.661 53.8192 141.201 53.1897 140.214 52.0496C139.266 50.9078 138.752 49.3747 138.752 47.4057C138.752 45.2021 139.345 43.5498 140.53 42.4079C141.715 41.266 143.334 40.6774 145.387 40.6774C145.703 40.6774 146.058 40.7165 146.374 40.7556L146.296 35.1281L151.469 34.7742L151.271 47.9161L151.273 47.9199ZM144.006 44.6153C143.768 44.9301 143.606 45.4237 143.606 46.329C143.606 47.5491 143.768 48.5885 144.006 49.1008C144.204 49.6131 144.677 49.9279 145.191 49.9279C145.664 49.9279 146.1 49.7305 146.455 49.3765L146.494 48.4322L146.455 44.4178C146.06 44.2613 145.666 44.1421 145.27 44.1421C144.797 44.103 144.322 44.2595 144.006 44.6134V44.6153Z" fill="white"/>
<path d="M163.397 41.3088L162.631 45.4069L162.133 45.0865C161.541 44.7326 160.909 44.4178 160.277 44.1812C159.804 43.9837 159.29 43.8664 158.775 43.8664C158.302 43.8664 158.065 44.0228 158.065 44.3377C158.065 44.5742 158.222 44.8089 158.459 44.9282C158.893 45.1647 159.329 45.3212 159.802 45.4795C160.473 45.7161 161.105 45.9918 161.737 46.3066C162.25 46.5824 162.724 47.0145 163.079 47.4877C163.474 48.039 163.672 48.7468 163.632 49.4156C163.632 50.1626 163.435 50.9505 163.04 51.5802C162.606 52.288 161.936 52.8785 161.144 53.1933C160.118 53.6255 159.011 53.8229 157.906 53.7838C156.365 53.7838 154.825 53.5473 153.365 53.076L154.146 48.7114C154.818 49.2237 155.814 49.8478 156.603 50.1626C157.235 50.4383 157.906 50.5947 158.577 50.6339C159.091 50.6339 159.327 50.4774 159.327 50.1216C159.327 49.885 159.17 49.6503 158.932 49.5311C158.499 49.2945 158.063 49.099 157.59 48.9797C156.919 48.7432 156.287 48.4674 155.655 48.1527C155.141 47.8769 154.668 47.4839 154.313 46.9716C153.918 46.3811 153.72 45.7123 153.759 45.0045C153.759 44.2184 153.997 43.4305 154.431 42.7226C154.904 42.0148 155.616 41.4634 156.405 41.1095C157.392 40.6773 158.418 40.4798 159.486 40.5189C160.907 40.5879 162.132 40.8729 163.395 41.305L163.397 41.3088Z" fill="white"/>
<path d="M164.817 38.7904H164.383V38.4756H165.646V38.7904H165.213V39.9714H164.818L164.817 38.7904ZM166.002 38.4756H166.515L166.872 39.4592L167.226 38.4756H167.74V39.9714H167.346V38.9879L166.99 39.9714H166.714L166.359 38.9879V39.9714H165.965L166.003 38.4756H166.002Z" fill="white"/>
</svg>
