<svg width="208" height="88" viewBox="0 0 208 88" fill="none" xmlns="http://www.w3.org/2000/svg">
<rect x="0.5" y="0.5" width="207" height="87" rx="43.5" stroke="#1E1F35"/>
<path d="M149.766 63.291H58.3195C55.9461 63.291 54.0238 61.3222 54.0238 58.8913V50.4737C54.0238 48.0428 55.9461 46.074 58.3195 46.074H149.766C152.139 46.074 154.061 48.0428 154.061 50.4737V58.8913C154.061 61.3222 152.139 63.291 149.766 63.291Z" fill="#CDCA31"/>
<path d="M58.1038 57.6057V52.2618H61.1441C61.8503 52.2618 62.3799 52.3824 62.7526 52.6234C63.1056 52.8645 63.3018 53.206 63.3018 53.648C63.3018 54.2105 63.0272 54.6123 62.4976 54.8333C63.2037 55.0342 63.5568 55.4762 63.5568 56.1191C63.5568 56.6012 63.3606 56.9628 62.9683 57.224C62.576 57.4852 62.0072 57.6057 61.2618 57.6057H58.1038ZM59.673 54.3913H60.9087C61.458 54.3913 61.7326 54.2105 61.7326 53.869C61.7326 53.5275 61.458 53.3668 60.8891 53.3668H59.673V54.3913ZM59.673 56.5008H61.0657C61.6541 56.5008 61.9287 56.32 61.9287 55.9584C61.9287 55.7775 61.8503 55.6369 61.713 55.5365C61.5757 55.4561 61.3599 55.3958 61.046 55.3958H59.6534V56.5008H59.673Z" fill="black"/>
<path d="M63.9491 57.6057L66.6168 52.2618H68.2448L70.8929 57.6057H69.1667L68.7352 56.6414H66.0675L65.636 57.6057H63.9491ZM66.5383 55.5767H68.3233L67.4406 53.5677L66.5383 55.5767Z" fill="black"/>
<path d="M70.1083 52.2618H71.9717L73.4036 54.2306L74.8355 52.2618H76.6598L74.1882 55.4762V57.6057H72.5994V55.4963L70.1083 52.2618Z" fill="black"/>
<path d="M80.0336 52.1211C80.3867 52.101 80.7202 52.1412 81.0536 52.2416C81.3871 52.322 81.6421 52.4225 81.8186 52.5028C81.9951 52.5832 82.0736 52.6435 82.0736 52.6635L81.7009 53.9091C81.7009 53.889 81.6421 53.8488 81.5048 53.7685C81.3675 53.6881 81.1713 53.6078 80.9163 53.5073C80.6417 53.4269 80.3867 53.3868 80.1121 53.3868C79.5629 53.3868 79.1117 53.5274 78.7782 53.8087C78.4448 54.0899 78.2879 54.4716 78.2879 54.9337C78.2879 55.3958 78.4448 55.7976 78.7782 56.0788C79.1117 56.3601 79.5629 56.5007 80.1121 56.5007C80.3867 56.5208 80.6613 56.4806 80.9359 56.3802C81.2105 56.2998 81.4263 56.1993 81.5636 56.119C81.7009 56.0386 81.7794 55.9784 81.7794 55.9583L82.1521 57.1838C82.1521 57.2038 82.0736 57.2641 81.8971 57.3445C81.7205 57.4248 81.4655 57.5253 81.1125 57.6257C80.7594 57.7262 80.4063 57.7664 80.0532 57.7463C79.0921 57.7664 78.2879 57.4851 77.6209 56.9427C76.954 56.4003 76.6402 55.7172 76.6598 54.9136C76.6402 54.11 76.954 53.447 77.6209 52.9046C78.2682 52.3622 79.0725 52.101 80.0336 52.1211Z" fill="black"/>
<path d="M86.2124 54.7328C85.9574 54.6123 85.7416 54.4516 85.6043 54.2507C85.467 54.0498 85.3885 53.8288 85.3885 53.5877C85.3885 53.1658 85.5847 52.8243 85.9574 52.543C86.3301 52.2618 86.8008 52.1212 87.3893 52.1212C87.9581 52.1212 88.4289 52.2618 88.8016 52.543C89.1743 52.8243 89.3704 53.1658 89.3704 53.5877C89.3704 54.11 89.0958 54.4918 88.527 54.7529C88.88 54.8333 89.2331 54.994 89.5666 55.2351C89.645 55.0342 89.6843 54.8132 89.7039 54.5721H91.1554C90.9985 55.1748 90.7827 55.6971 90.4689 56.119C90.7435 56.5208 90.9789 57.0231 91.1554 57.6258H89.7039C89.6843 57.445 89.645 57.2642 89.5862 57.0432C88.8997 57.5052 88.1151 57.7463 87.1931 57.7463C86.4674 57.7463 85.8985 57.6057 85.4866 57.3244C85.0747 57.0432 84.8785 56.6615 84.8785 56.1793C84.8785 55.8378 84.9962 55.5364 85.2316 55.2953C85.4474 55.0141 85.7808 54.8333 86.2124 54.7328ZM87.3108 56.7016C87.9385 56.7016 88.4681 56.5007 88.9389 56.0989C88.7035 55.898 88.4485 55.7373 88.1543 55.6369C87.8601 55.5364 87.5854 55.4762 87.2912 55.4762C86.9774 55.4762 86.7224 55.5364 86.5458 55.6369C86.3693 55.7373 86.2908 55.8981 86.2908 56.0789C86.2908 56.2597 86.3889 56.4204 86.5655 56.5208C86.742 56.6615 86.997 56.7016 87.3108 56.7016ZM87.3697 54.1502C87.5658 54.1502 87.7424 54.11 87.8601 54.0096C87.9777 53.9091 88.0562 53.7886 88.0562 53.6078C88.0562 53.4471 87.9974 53.3265 87.8601 53.2261C87.7227 53.1256 87.5658 53.0855 87.3697 53.0855C87.1539 53.0855 86.997 53.1256 86.8597 53.2261C86.7224 53.3265 86.6635 53.4471 86.6635 53.6078C86.6635 53.7685 86.7224 53.9091 86.8597 54.0096C86.997 54.11 87.1735 54.1502 87.3697 54.1502Z" fill="black"/>
<path d="M94.2743 57.6057V52.2618H95.7651L97.6285 54.4918L99.4723 52.2618H100.983V57.6057H99.4723V54.1904L97.7266 56.2798H97.5108L95.7651 54.1704V57.6057H94.2743Z" fill="black"/>
<path d="M101.767 57.6057L104.435 52.2618H106.063L108.711 57.6057H106.985L106.553 56.6414H103.886L103.454 57.6057H101.767ZM104.356 55.5767H106.141L105.259 53.5677L104.356 55.5767Z" fill="black"/>
<path d="M107.927 52.2618H109.77L111.202 54.2306L112.634 52.2618H114.458L111.987 55.4762V57.6057H110.398V55.4963L107.927 52.2618Z" fill="black"/>
<path d="M117.832 52.1211C118.185 52.101 118.519 52.1412 118.852 52.2416C119.186 52.322 119.441 52.4225 119.617 52.5028C119.794 52.5832 119.872 52.6435 119.872 52.6635L119.499 53.9091C119.499 53.889 119.441 53.8488 119.303 53.7685C119.166 53.6881 118.97 53.6078 118.715 53.5073C118.46 53.4069 118.185 53.3868 117.911 53.3868C117.361 53.3868 116.91 53.5274 116.577 53.8087C116.243 54.0899 116.086 54.4716 116.086 54.9337C116.086 55.3958 116.243 55.7976 116.577 56.0788C116.91 56.3601 117.361 56.5007 117.911 56.5007C118.185 56.5208 118.46 56.4806 118.734 56.3802C119.009 56.2998 119.225 56.1993 119.362 56.119C119.499 56.0386 119.578 55.9784 119.578 55.9583L119.951 57.1838C119.951 57.2038 119.872 57.2641 119.696 57.3445C119.519 57.4248 119.264 57.5253 118.911 57.6257C118.558 57.7262 118.205 57.7664 117.852 57.7463C116.891 57.7664 116.086 57.4851 115.419 56.9427C114.772 56.4003 114.439 55.7172 114.458 54.9136C114.439 54.11 114.752 53.447 115.419 52.9046C116.086 52.3622 116.891 52.101 117.832 52.1211Z" fill="black"/>
<path d="M122.285 57.6057L124.952 52.2618H126.581L129.229 57.6057H127.522L127.091 56.6414H124.423L123.991 57.6057H122.285ZM124.874 55.5767H126.659L125.776 53.5677L124.874 55.5767Z" fill="black"/>
<path d="M130.033 57.6057V52.2618H131.622V56.3401H134.603V57.6057H130.033Z" fill="black"/>
<path d="M135.623 57.6057V52.2618H138.291C139.036 52.2618 139.644 52.4426 140.095 52.7842C140.547 53.1257 140.782 53.5878 140.782 54.1704C140.782 54.753 140.547 55.215 140.095 55.5566C139.644 55.8981 139.036 56.0789 138.291 56.0789H137.192V57.6057H135.623ZM137.192 54.8936H138.154C138.82 54.8936 139.154 54.6525 139.154 54.1503C139.154 53.648 138.82 53.4069 138.154 53.4069H137.192V54.8936Z" fill="black"/>
<path d="M140.625 57.6057L143.293 52.2618H144.921L147.569 57.6057H145.843L145.411 56.6414H142.743L142.312 57.6057H140.625ZM143.214 55.5767H144.999L144.117 53.5677L143.214 55.5767Z" fill="black"/>
<path d="M46.4719 43.0204L53.6903 25.4016H58.143L65.3418 43.0204H60.6734L59.516 39.8462H52.278L51.1207 43.0204H46.4719ZM53.4746 36.3304H58.3195L55.9068 29.7209L53.4746 36.3304Z" fill="#F7F7FA"/>
<path d="M67.4994 43.0204V25.4016H74.757C76.797 25.4016 78.4251 25.9641 79.6608 27.1092C80.8966 28.2342 81.5243 29.761 81.5243 31.6696C81.5243 33.5781 80.9162 35.105 79.6804 36.2501C78.4447 37.3952 76.8166 37.9577 74.7766 37.9577H71.7951V43.0204H67.4994ZM71.7755 34.1206H74.404C76.2282 34.1206 77.1305 33.317 77.1305 31.6897C77.1305 30.0624 76.2282 29.2588 74.404 29.2588H71.7755V34.1206Z" fill="#F7F7FA"/>
<path d="M84.5254 43.0204V25.4016H96.9614V29.2588H88.8604V32.1517H96.0395V36.009H88.8604V39.1832H97.2164V43.0404H84.5254V43.0204Z" fill="#F7F7FA"/>
<path d="M108.064 43.0204V25.4016H112.379V38.8417H120.48V43.0204H108.064Z" fill="#F7F7FA"/>
<path d="M123.226 43.0204V25.4016H127.542V43.0204H123.226Z" fill="#F7F7FA"/>
<path d="M130.68 41.6944L131.641 37.8371C131.641 37.8974 131.896 38.0581 132.426 38.3193C132.955 38.6005 133.72 38.8818 134.74 39.143C135.76 39.4242 136.78 39.5448 137.781 39.5046C139.585 39.5046 140.488 39.0224 140.488 38.038C140.488 37.576 140.331 37.2344 139.997 36.9733C139.664 36.7121 139.075 36.4911 138.212 36.2902L135.466 35.6875C133.897 35.346 132.74 34.7634 132.034 33.9196C131.308 33.0758 130.955 31.9106 130.955 30.4441C130.955 28.8168 131.524 27.5109 132.661 26.5265C133.799 25.5421 135.466 25.0399 137.683 25.0399C138.82 24.9997 139.958 25.1202 141.076 25.4015C142.194 25.6627 143.018 25.9439 143.548 26.2051C144.097 26.4663 144.352 26.627 144.352 26.6873L143.41 30.5646C143.41 30.5043 143.175 30.3637 142.704 30.0824C142.234 29.8213 141.527 29.54 140.586 29.2788C139.644 29.0177 138.703 28.8971 137.742 28.9172C136.074 28.9172 135.231 29.3793 135.231 30.3034C135.231 30.7655 135.388 31.107 135.702 31.3481C136.015 31.5892 136.624 31.8102 137.506 31.991L139.88 32.4932C141.586 32.8548 142.822 33.4776 143.607 34.3415C144.391 35.2054 144.783 36.3706 144.783 37.8572C144.783 39.605 144.175 40.9711 142.959 41.9355C141.743 42.9199 139.958 43.402 137.624 43.402C136.467 43.4422 135.29 43.3016 134.132 43.0203C132.975 42.7391 132.092 42.4578 131.504 42.1765C130.955 41.8953 130.661 41.7346 130.68 41.6944Z" fill="#F7F7FA"/>
<path d="M146.294 29.52V25.4216H161.28V29.52H155.945V43.0204H151.629V29.52H146.294Z" fill="#F7F7FA"/>
</svg>
