<svg width="208" height="88" viewBox="0 0 208 88" fill="none" xmlns="http://www.w3.org/2000/svg">
<rect x="0.5" y="0.5" width="207" height="87" rx="43.5" stroke="#1E1F35"/>
<mask id="mask0_523_8491" style="mask-type:luminance" maskUnits="userSpaceOnUse" x="39" y="27" width="130" height="35">
<path d="M168.719 27.1299H39.23V61.7733H168.719V27.1299Z" fill="white"/>
</mask>
<g mask="url(#mask0_523_8491)">
<path d="M67.3194 61.2543L66.8056 60.7389L66.7987 52.2359L66.7882 43.7363L64.9463 46.0856L63.1045 48.4349L62.3775 48.5121C61.9791 48.5542 61.6226 48.5892 61.5911 48.5892H61.5282V43.6311V38.6695L60.8467 37.9332L60.1652 37.1969V36.4781V35.7557L60.8747 35.7592H61.5806L62.6292 36.741L63.6776 37.7263L63.6951 40.9663L63.7126 44.2062L65.516 41.6921L67.3159 39.1745L67.578 39.164L67.8367 39.1499L68.0988 38.8063C68.2421 38.6135 68.3749 38.4591 68.3889 38.4557C68.4029 38.4557 68.7838 38.7748 69.2347 39.164L70.0525 39.8757L70.056 46.4117V52.9442L69.5143 53.5192L68.9725 54.0907V57.4218V60.753L68.4134 61.2614C68.1058 61.5419 67.8506 61.7733 67.8437 61.7733C67.8402 61.7733 67.6025 61.5419 67.3194 61.2543Z" fill="#F7F7FA"/>
<path d="M145.226 61.3069L144.604 60.9844L144.597 58.4247L144.586 55.865L144.314 55.8475L144.045 55.83L139.431 50.118L134.818 44.406V43.9958C134.818 43.7714 134.828 43.4418 134.838 43.27L134.863 42.9509L135.674 41.9831L136.489 41.0188L136.513 40.4018L136.537 39.7846L140.347 35.1666C142.444 32.628 144.209 30.4961 144.268 30.433L144.377 30.3173L144.68 30.3243L144.981 30.3348L145.477 29.7387L145.97 29.1461H146.005C146.026 29.1461 146.316 29.3671 146.652 29.637L147.267 30.1279L147.246 31.0396C147.235 31.541 147.218 33.4099 147.207 35.1947C147.197 36.9795 147.179 38.6941 147.169 39.0097L147.148 39.5777L146.62 40.1563C146.331 40.4754 146.086 40.7348 146.071 40.7348C146.061 40.7348 145.824 40.549 145.548 40.3211L145.041 39.9073L145.03 36.8497L145.023 33.7921H144.992C144.974 33.7921 143.195 36.0432 141.035 38.7923L137.107 43.7959L137.111 43.852V43.9116L138.589 45.7245L140.064 47.5373L140.874 47.5408H141.686L143.115 49.4167C143.901 50.4441 144.558 51.2892 144.572 51.2892H144.604V48.0632V44.8374H142.269H139.938L139.435 44.3324L138.931 43.8275L138.98 43.7609C139.009 43.7223 139.232 43.4453 139.48 43.1437L139.931 42.5932H142.42H144.904L145.16 42.2251C145.295 42.0217 145.425 41.8569 145.439 41.8569C145.456 41.8569 145.907 42.1094 146.442 42.4144L147.417 42.9719L147.438 43.9327C147.449 44.4587 147.469 45.5596 147.484 46.3802L147.508 47.8704L147.106 48.449L146.704 49.0275L146.701 54.6799V60.3287L146.295 60.9809C146.071 61.3385 145.88 61.633 145.865 61.633C145.855 61.633 145.565 61.4858 145.226 61.3069Z" fill="#F7F7FA"/>
<path d="M118.828 55.4442L114.424 51.0472H113.725L113.027 51.0437L109.647 47.653L106.267 44.2623L106.033 44.4447L105.799 44.6269H105.351H104.901V49.7744V54.9183L104.446 55.4618L103.992 56.0053V57.3132V58.6246L103.478 59.1646L102.965 59.7046L102.936 59.6976C102.922 59.6905 102.649 59.4521 102.332 59.1681L101.755 58.6456L101.759 57.5727C101.759 56.9801 101.787 53.6946 101.821 50.2723L101.884 44.0484L101.419 43.5786L100.951 43.1052V38.2803V33.4555L101.388 32.9646L101.825 32.4773V30.2822V28.0872L101.849 27.6104L101.87 27.13H102.538H103.209L103.597 27.5753L103.988 28.0241L103.992 33.5818L103.995 39.1394L104.446 39.5216L104.901 39.9039V40.5315V41.1626L104.935 41.1486C104.953 41.1451 106.945 38.9291 109.36 36.2291C111.775 33.5292 113.956 31.0957 114.204 30.8222L114.655 30.3208H117.182H119.712L120.32 30.8117C120.652 31.0817 120.925 31.3166 120.925 31.3342C120.925 31.3517 120.73 31.6217 120.488 31.9303L120.051 32.4913L118.199 32.4983C117.182 32.5018 116.165 32.5123 115.941 32.5263L115.532 32.5474L114.533 33.6694L113.537 34.7915L113.533 35.5453L113.53 36.2993L110.947 39.1184C109.524 40.6717 108.36 41.9481 108.36 41.9551C108.36 41.9691 110.709 44.3429 114.826 48.4945L116.626 50.3074H117.29H117.954L121.32 53.684L124.682 57.0572V58.4527V59.8448H123.959H123.232L118.828 55.4442Z" fill="#F7F7FA"/>
<path d="M106.973 55.4197L105.53 53.9751V52.4743V50.9736H105.557C105.571 50.9736 106.578 51.9729 107.794 53.1931L110.003 55.4092V56.1385V56.8644H109.21H108.413L106.973 55.4197Z" fill="#F7F7FA"/>
<path d="M123.742 55.1216L123.214 54.5746V47.9194V41.2678L123.668 40.9803L124.119 40.6928L124.098 36.3904L124.078 32.088L124.581 31.7163C124.857 31.5165 125.105 31.3376 125.126 31.3236L125.171 31.2991L125.72 31.6743C126.024 31.8811 126.286 32.06 126.3 32.074C126.318 32.088 127.45 34.6161 128.824 37.6877L131.312 43.2735L131.344 43.284L131.375 43.2945L131.365 41.7482L131.358 40.2054L131.672 39.8652L131.986 39.5251V37.4212V35.3174L132.574 34.7283L133.157 34.1428L133.193 34.1463C133.213 34.1463 133.462 34.4092 133.748 34.7283L134.269 35.3069L134.248 36.8181C134.234 37.6527 134.192 40.6612 134.15 43.5049L134.077 48.6769L133.532 49.2309C133.231 49.5324 132.976 49.7814 132.962 49.7814C132.951 49.7814 132.591 49.571 132.161 49.3185L131.378 48.8522L128.827 43.0771L126.273 37.2985H126.248H126.22V44.5358V51.773L125.8 52.0781L125.381 52.3796V53.6489V54.9183L124.843 55.297C124.546 55.5038 124.294 55.6721 124.287 55.6721C124.276 55.6721 124.032 55.4232 123.742 55.1216Z" fill="#F7F7FA"/>
<path d="M163.757 54.0066C163.757 53.996 163.753 53.6454 163.753 53.2281V52.4637L164.428 51.8536C164.798 51.5205 165.109 51.233 165.112 51.2154L165.126 51.1839H163.948H162.774L162.033 51.7975L161.292 52.4111H154.788H148.284L147.739 51.9482L147.193 51.482V50.7035L147.19 49.9251L153.761 41.5167C157.374 36.8917 160.331 33.0978 160.331 33.0838V33.0557H159.139H157.951L157.343 32.5824L156.735 32.109H154.519C153.299 32.109 151.971 32.1195 151.566 32.1335L150.825 32.1546V32.8313V33.5046L150.437 33.8482L150.049 34.1883L150.074 35.4541L150.101 36.7234L149.686 37.4493L149.273 38.1751H149.238C149.217 38.1751 148.934 38.0138 148.606 37.8174L148.005 37.4563L147.983 35.3033C147.969 34.1182 147.959 32.7366 147.959 32.2317V31.313L148.291 30.6223L148.62 29.935H157.326H166.028V30.6468V31.3586L160.957 37.7929L155.882 44.2237L155.11 44.2412L154.337 44.2587L152.527 46.6431L150.713 49.0274L159.716 49.038L168.719 49.0449V49.8479V50.6544L166.986 52.3375L165.249 54.0241H164.504C164.092 54.0241 163.757 54.0171 163.757 54.0066Z" fill="#F7F7FA"/>
<path d="M48.1247 50.132L47.5026 49.571H44.3012H41.1033L40.939 49.7112L40.7713 49.8515H40.0024H39.23V48.505V47.162L45.5419 40.3175L51.8504 33.4765H52.1369C52.2942 33.4765 52.6263 33.466 52.8709 33.452L53.3217 33.4309L55.3104 31.3061L57.2991 29.1812V28.7429V28.3011L57.8792 27.8137C58.1973 27.5437 58.4699 27.3193 58.4839 27.3123C58.4978 27.3088 58.7181 27.5156 58.9697 27.7751L59.431 28.245V29.3881C59.431 32.3159 59.431 35.5734 59.431 36.5727L59.4275 37.6667L58.8683 38.1751C58.5608 38.4557 58.2882 38.6871 58.2671 38.6941L58.2252 38.7011L57.7709 38.1856L57.3165 37.6702L57.2991 35.093L57.2816 32.5158L50.2147 39.995C46.3248 44.108 43.1444 47.4882 43.1444 47.5057V47.5373H50.7984H58.4524V44.967V42.4003L58.9347 41.92L59.4135 41.4431L59.9832 41.9165L60.5494 42.3934V45.4369V48.4805L61.1436 48.9994L61.7412 49.5184L61.7307 49.5604C61.7237 49.5815 61.5035 49.8444 61.2379 50.146L60.7556 50.693H54.7547H48.7503L48.1247 50.132Z" fill="#F7F7FA"/>
<path d="M71.3592 49.9462L70.8279 49.5535V46.1313C70.8245 44.2483 70.8349 39.5602 70.8489 35.7102L70.8699 28.7114L71.3137 28.0171L71.7576 27.3228L71.789 27.3264C71.8065 27.3264 72.0896 27.5473 72.4217 27.8172L73.0228 28.3046V34.1463L73.0263 39.9915L73.4457 40.4579L73.8651 40.9242V43.7924V46.6607H76.8253H79.7821L79.7297 46.6011C79.7017 46.5661 78.5623 45.1985 77.2028 43.5575L74.7319 40.5771L74.5466 40.5666L74.3649 40.5561L73.8301 39.9985L73.2989 39.4375L73.3129 39.406C73.3199 39.3884 73.561 39.1605 73.8476 38.8975L74.3718 38.4207H75.0604H75.7524L75.8363 38.5188C75.8852 38.5714 77.6117 40.6577 79.6807 43.1543L83.4379 47.6951L83.4413 48.5121V49.3256H82.7354L82.0259 49.3221L81.8337 49.0977L81.6414 48.8732L77.395 48.8697H73.1486L72.5615 49.6061L71.9778 50.3424L71.9324 50.3389C71.9114 50.3389 71.6528 50.1601 71.3592 49.9462Z" fill="#F7F7FA"/>
<path d="M96.9185 45.3389L92.7036 41.068V40.3071V39.5427L94.486 37.7404C95.4681 36.7517 96.2685 35.9311 96.2685 35.9171V35.8961H94.2938H92.3191V40.5947V45.2897L91.8263 45.8157L91.3336 46.3451L90.7708 45.8192L90.2047 45.2968L90.2466 43.5331C90.2676 42.5618 90.2886 41.5379 90.2886 41.2538L90.292 40.7349H90.2536C90.2326 40.7349 90.0159 40.5701 89.7713 40.3702L89.3239 40.0021L89.3029 38.5539C89.289 37.7579 89.2785 36.8323 89.2785 36.5027V35.8961H88.9465H88.6144L88.1916 35.2579L87.7651 34.6198L87.7966 34.5742C87.8141 34.5496 88.2684 34.1814 88.8067 33.7571L89.7853 32.9857H92.3716H94.9613L95.2199 33.3364L95.4786 33.687H97.7609H100.043V34.5216L100.04 35.3526L97.7888 37.6493C96.5481 38.9116 95.5345 39.9565 95.5345 39.967C95.5345 39.9775 96.8102 41.2924 98.3654 42.8879L101.196 45.7876V47.6952V49.6062H101.165C101.147 49.6062 99.2357 47.6846 96.9185 45.3389Z" fill="#F7F7FA"/>
<path d="M80.0165 42.2355C76.913 38.5889 74.3686 35.5874 74.3616 35.5628L74.3512 35.5243L75.3507 34.7634L76.3468 34.0025H78.996H81.6487L81.8654 34.283L82.0821 34.5635H83.7038H85.3289L85.3324 33.6798V32.7928L85.9056 32.3299C86.2201 32.0739 86.4892 31.8636 86.5067 31.8636C86.5207 31.8671 86.7269 32.1265 86.9646 32.4421L87.391 33.0207V34.2724V35.5243L87.5342 35.6926C87.6147 35.7872 87.674 35.8679 87.6671 35.8749C87.6601 35.8784 87.4154 36.0853 87.1219 36.3272L86.5906 36.7726L82.4665 36.7795L78.3459 36.7901L82.4735 41.7271L86.6011 46.6606H89.5753H92.5496L93.1717 47.1901L93.7903 47.7231L93.7623 47.7476C93.7483 47.7616 93.4687 48.0211 93.1437 48.3226L92.5566 48.8696H89.107H85.6609L80.0165 42.2355Z" fill="#F7F7FA"/>
<path d="M120.594 47.8844L120.157 47.4671H119.789C119.587 47.4671 118.724 47.4917 117.868 47.5197C117.011 47.5478 116.138 47.5723 115.921 47.5758L115.529 47.5863L115.197 47.2672L114.865 46.9481L115.655 46.1207L116.441 45.2931H118.22H120V42.2251V39.1569H118.046H116.092L116.071 39.5181C116.06 39.7144 116.043 40.9873 116.033 42.3442L116.008 44.8128L115.222 45.6508L114.435 46.4853L114.309 46.3731C114.236 46.3135 113.995 46.0891 113.771 45.8787L113.359 45.493V42.8281V40.1667L113.6 39.9038L113.838 39.6408L113.859 39.1815L113.883 38.7187L113.607 38.4416L113.331 38.1646L113.806 37.5931L114.285 37.018H117.19H120.094L120.559 36.5201C120.814 36.2431 121.034 36.0187 121.048 36.0187C121.062 36.0187 121.335 36.2466 121.656 36.5236L122.236 37.0286V42.1199V47.2077L121.656 47.7511C121.335 48.0492 121.065 48.2946 121.052 48.2982C121.041 48.3016 120.835 48.1158 120.594 47.8844Z" fill="#F7F7FA"/>
<path d="M84.4553 41.0293C83.7353 41.0082 83.0503 40.9837 82.935 40.9837L82.7252 40.9802L82.2255 40.4121C81.9529 40.0966 81.7257 39.8266 81.7222 39.8056L81.7152 39.7705L82.3094 39.3427L82.9 38.9114H85.0669H87.2338L87.6777 39.5881C87.9223 39.9563 88.132 40.2859 88.1425 40.3175L88.1634 40.3736L87.5624 40.7312L86.9647 41.0854L86.3635 41.0784C86.035 41.0784 85.1753 41.0538 84.4553 41.0293Z" fill="#F7F7FA"/>
</g>
</svg>
