<svg width="208" height="88" viewBox="0 0 208 88" fill="none" xmlns="http://www.w3.org/2000/svg">
<rect x="0.5" y="0.5" width="207" height="87" rx="43.5" stroke="#1E1F35"/>
<path d="M62.6081 46.2326C62.3489 45.4582 62.4048 45.7936 60.7902 41.7171C59.8188 39.263 59.3326 38.0354 59.2232 37.7035C58.4706 35.4137 58.4635 34.6357 57.5932 33.439C57.3269 33.0726 56.6967 32.2233 55.5875 31.5572C54.0632 30.6424 52.6033 30.6579 50.5107 30.6793C48.5169 30.6995 47.5194 30.7102 46.3745 31.3062C44.7397 32.1567 43.9027 33.5746 43.5198 34.242C42.9385 35.2555 42.7946 35.9882 42.4879 37.0755C41.7091 39.8376 41.3703 39.5902 40.0434 43.3467C39.3562 45.294 38.7701 46.9772 38.3516 49.304C38.071 50.8611 37.851 52.0887 37.9129 53.6934C37.983 55.5051 38.0972 58.4623 40.1695 60.9056C42.64 63.8188 46.3019 64.1186 47.1889 64.1662C49.814 64.1031 52.4404 64.0401 55.0655 63.9758C56.1296 63.8616 58.92 63.4144 61.0399 61.1554C63.0908 58.9702 63.3452 56.3354 63.5687 54.017C63.929 50.2794 62.9552 47.271 62.6069 46.2302L62.6081 46.2326ZM58.3184 47.3936C57.4897 48.4927 56.7526 48.4844 56.2247 49.6739C55.8669 50.4804 55.8823 51.2144 55.899 51.7223C55.9596 53.5209 56.8002 53.904 57.2555 55.9345C57.5159 57.0943 57.7751 58.247 57.202 59.3092C56.497 60.6166 54.9359 61.0198 54.0383 61.2637C53.212 61.4885 52.3702 61.4599 50.6891 61.4028C48.574 61.3315 47.4944 61.2851 46.4089 60.751C45.8513 60.4774 44.9204 59.979 44.4555 58.9357C44.0204 57.9591 44.2142 56.9765 44.3699 56.1891C44.5304 55.379 44.6588 55.4789 45.1606 53.8849C45.6956 52.1874 45.711 51.5629 45.6956 51.1846C45.6766 50.7219 45.6552 50.1926 45.3853 49.6252C44.8003 48.3928 43.7897 48.5117 42.9504 47.4376C42.2715 46.568 41.8209 45.0633 42.4391 43.8071C42.9349 42.7972 44.0275 42.1358 45.0441 42.0846C46.0618 42.0335 46.2033 42.6318 47.8975 43.0624C48.9651 43.3337 49.8176 43.3265 50.8353 43.3182C51.9565 43.3087 52.8731 43.3015 53.9919 42.9697C55.591 42.4938 55.7408 41.905 56.7372 41.9455C57.6431 41.9823 58.6751 42.5117 59.1412 43.3967C60.0222 45.0728 58.4445 47.2258 58.3196 47.3912L58.3184 47.3936Z" fill="#EFEFEF"/>
<path d="M49.6131 52.1291C49.6131 51.6725 49.2434 51.3023 48.7874 51.3023C48.3314 51.3023 47.9617 51.6725 47.9617 52.1291V53.2223C47.9617 53.6789 48.3314 54.049 48.7874 54.049C49.2434 54.049 49.6131 53.6789 49.6131 53.2223V52.1291Z" fill="#EFEFEF"/>
<path d="M53.5901 52.1291C53.5901 51.6725 53.2204 51.3023 52.7643 51.3023C52.3083 51.3023 51.9386 51.6725 51.9386 52.1291V53.2223C51.9386 53.6789 52.3083 54.049 52.7643 54.049C53.2204 54.049 53.5901 53.6789 53.5901 53.2223V52.1291Z" fill="#EFEFEF"/>
<path d="M45.6433 45.8911C45.585 46.0684 45.4186 46.6465 45.6683 47.296C45.7087 47.4007 46.0665 48.2881 46.9892 48.5165C47.7429 48.7032 48.5716 48.3725 49.0638 47.6838C47.9236 47.0866 46.7847 46.4895 45.6445 45.8911H45.6433Z" fill="#EFEFEF"/>
<path d="M55.9085 45.8911C55.9667 46.0684 56.1332 46.6465 55.8835 47.296C55.8431 47.4007 55.4852 48.2881 54.5626 48.5165C53.8088 48.7032 52.9801 48.3725 52.4879 47.6838C53.6281 47.0866 54.7671 46.4895 55.9073 45.8911H55.9085Z" fill="#EFEFEF"/>
<path d="M41.9754 33.7518C40.6379 32.6336 39.3003 31.5154 37.9616 30.3973C37.6156 30.1082 37.5384 29.605 37.7821 29.2244C38.8747 27.5186 39.9661 25.8128 41.0588 24.1082C41.4143 23.5538 40.7009 22.9388 40.2051 23.3718C37.7096 25.5546 35.2152 27.7375 32.7196 29.9203C31.9682 30.5769 31.8767 31.7129 32.5128 32.4825L39.04 40.3799C39.1922 40.5631 39.4846 40.5215 39.5774 40.3014C40.4227 38.3089 41.2692 36.3165 42.1145 34.324C42.1989 34.1241 42.1431 33.891 41.9766 33.7518H41.9754Z" fill="#EFEFEF"/>
<path d="M59.5763 33.7518C60.9139 32.6336 62.2514 31.5154 63.5901 30.3972C63.9361 30.1082 64.0134 29.605 63.7697 29.2244C62.677 27.5185 61.5856 25.8127 60.493 24.1081C60.1375 23.5538 60.8509 22.9388 61.3466 23.3718C63.8422 25.5546 66.3366 27.7374 68.8321 29.9202C69.5835 30.5769 69.6751 31.7129 69.039 32.4825L62.5118 40.3799C62.3596 40.5631 62.0671 40.5215 61.9744 40.3014C61.1291 38.3089 60.2825 36.3164 59.4372 34.3239C59.3528 34.1241 59.4087 33.8909 59.5751 33.7518H59.5763Z" fill="#EFEFEF"/>
<path d="M77.3437 46.7543V36.1979H81.1336C82.4908 36.1979 83.5233 36.447 84.2312 36.9453C84.9392 37.4436 85.2925 38.1662 85.2925 39.1132C85.2925 39.6597 85.1673 40.1254 84.9157 40.5128C84.6641 40.8989 84.2951 41.1846 83.8075 41.3685C84.3577 41.5133 84.7814 41.7846 85.0761 42.1811C85.3707 42.5777 85.518 43.0616 85.518 43.6316C85.518 44.666 85.1908 45.4434 84.5363 45.9626C83.8818 46.4817 82.9119 46.7465 81.6264 46.757H77.3437V46.7543ZM79.8872 40.5989H81.2131C81.7685 40.5937 82.1648 40.4919 82.4021 40.2937C82.6394 40.0954 82.7567 39.8019 82.7567 39.4132C82.7567 38.9671 82.629 38.6462 82.3721 38.4493C82.1166 38.2536 81.7033 38.1545 81.1323 38.1545H79.8859V40.5976L79.8872 40.5989ZM79.8872 42.2672V44.7978H81.5547C82.0136 44.7978 82.3669 44.6921 82.6133 44.4821C82.8597 44.2721 82.9823 43.976 82.9823 43.5938C82.9823 42.7146 82.5455 42.2724 81.6707 42.2672H79.8886H79.8872Z" fill="#EFEFEF"/>
<path d="M95.1929 36.1963V43.1057C95.1929 43.8883 95.026 44.5666 94.6923 45.1392C94.3585 45.7118 93.8801 46.1488 93.2569 46.4475C92.6337 46.7475 91.8971 46.8975 91.0471 46.8975C89.7616 46.8975 88.7499 46.5636 88.0107 45.8971C87.2715 45.2305 86.8947 44.3161 86.8804 43.1565V36.1963H89.4383V43.2074C89.467 44.3631 90.0041 44.9409 91.0471 44.9409C91.5738 44.9409 91.9727 44.7962 92.2426 44.5053C92.5125 44.2157 92.648 43.7435 92.648 43.0913V36.1963H95.1916H95.1929Z" fill="#EFEFEF"/>
<path d="M99.3244 44.7965H103.752V46.7543H96.7808V36.1979H99.3244V44.7978V44.7965Z" fill="#EFEFEF"/>
<path d="M107.368 44.7965H111.796V46.7543H104.825V36.1979H107.368V44.7978V44.7965Z" fill="#EFEFEF"/>
<path d="M118.312 43.9473C118.312 43.5756 118.18 43.2847 117.917 43.0773C117.653 42.8699 117.191 42.6547 116.528 42.4316C115.866 42.2099 115.325 41.9947 114.905 41.786C113.538 41.1142 112.854 40.1907 112.854 39.0167C112.854 38.4324 113.025 37.9158 113.365 37.4684C113.706 37.021 114.188 36.6727 114.811 36.4249C115.434 36.1757 116.135 36.0518 116.913 36.0518C117.691 36.0518 118.351 36.1875 118.953 36.4575C119.554 36.7288 120.022 37.1136 120.356 37.6145C120.69 38.1154 120.857 38.6867 120.857 39.3298H118.32C118.32 38.8993 118.188 38.5654 117.925 38.3293C117.661 38.0919 117.305 37.9745 116.856 37.9745C116.406 37.9745 116.042 38.0749 115.78 38.2758C115.517 38.4767 115.385 38.7311 115.385 39.0402C115.385 39.3115 115.53 39.5567 115.819 39.7759C116.108 39.9963 116.618 40.2233 117.348 40.4581C118.078 40.6929 118.677 40.9446 119.146 41.2159C120.287 41.8733 120.857 42.7799 120.857 43.9356C120.857 44.8591 120.509 45.5844 119.814 46.1113C119.117 46.6383 118.163 46.9018 116.951 46.9018C116.095 46.9018 115.321 46.7479 114.627 46.4413C113.934 46.1348 113.412 45.7135 113.062 45.18C112.711 44.6465 112.536 44.0308 112.536 43.3343H115.088C115.088 43.9004 115.234 44.3165 115.526 44.5852C115.818 44.8539 116.292 44.9869 116.949 44.9869C117.369 44.9869 117.702 44.8969 117.945 44.7156C118.189 44.5343 118.312 44.28 118.312 43.9513V43.9473Z" fill="#EFEFEF"/>
<path d="M127.311 41.1921C127.026 40.7864 126.803 40.399 126.641 40.0325C126.48 39.6646 126.399 39.285 126.399 38.8937C126.399 38.0432 126.674 37.3558 127.225 36.8315C127.775 36.3071 128.496 36.0449 129.386 36.0449C130.182 36.0449 130.842 36.2875 131.363 36.7741C131.885 37.2593 132.146 37.8632 132.146 38.5833C132.146 39.482 131.65 40.2803 130.659 40.9755L130.109 41.3603L131.732 43.2243C131.998 42.6921 132.131 42.1104 132.131 41.4764H134.182C134.182 42.9021 133.853 44.0461 133.196 44.9057L134.805 46.754H132.08L131.588 46.1957C131.182 46.437 130.768 46.6157 130.345 46.7318C129.923 46.8479 129.446 46.9053 128.914 46.9053C127.871 46.9053 127.034 46.6314 126.407 46.0822C125.778 45.5331 125.464 44.8118 125.464 43.9182C125.464 43.4304 125.588 42.9882 125.837 42.5917C126.086 42.1951 126.57 41.7334 127.29 41.2064L127.313 41.1921H127.311ZM129.073 45.0205C129.498 45.0205 129.903 44.9213 130.29 44.7231L128.392 42.563L128.327 42.606C128.052 42.9439 127.914 43.3261 127.914 43.7513C127.914 44.1048 128.024 44.4035 128.247 44.65C128.469 44.8965 128.745 45.0192 129.074 45.0192L129.073 45.0205ZM128.507 38.865C128.507 39.2029 128.691 39.6137 129.057 40.0977L129.542 39.7937C129.764 39.649 129.927 39.4989 130.027 39.3437C130.129 39.1885 130.18 38.9928 130.18 38.7567C130.18 38.535 130.103 38.3406 129.947 38.1763C129.792 38.0119 129.602 37.9298 129.375 37.9298C129.104 37.9298 128.891 38.0158 128.738 38.1867C128.582 38.3589 128.506 38.5846 128.506 38.865H128.507Z" fill="#EFEFEF"/>
<path d="M145.842 44.7821H142.356L141.747 46.7543H139.029L142.899 36.1979H145.29L149.189 46.7543H146.456L145.841 44.7821H145.842ZM142.965 42.8177H145.234L144.095 39.1562L142.965 42.8177Z" fill="#EFEFEF"/>
<path d="M152.502 43.1725V46.7543H149.958V36.1979H154.169C154.976 36.1979 155.689 36.3466 156.311 36.644C156.932 36.9414 157.413 37.364 157.753 37.9131C158.094 38.4623 158.264 39.0845 158.264 39.7797C158.264 40.8089 157.895 41.632 157.159 42.249C156.422 42.8646 155.41 43.1738 154.126 43.1738H152.503L152.502 43.1725ZM152.502 41.2081H154.168C154.661 41.2081 155.036 41.0854 155.294 40.8389C155.553 40.5924 155.682 40.2441 155.682 39.7954C155.682 39.3023 155.549 38.9084 155.283 38.6136C155.017 38.3188 154.654 38.1688 154.195 38.1636H152.499V41.2094L152.502 41.2081Z" fill="#EFEFEF"/>
<path d="M166.162 42.2721H162.162V44.7949H166.887V46.7528H159.619V36.1963H166.903V38.1607H162.164V40.386H166.164V42.2708L166.162 42.2721Z" fill="#EFEFEF"/>
<path d="M173.367 43.9473C173.367 43.5756 173.235 43.2847 172.972 43.0773C172.708 42.8699 172.245 42.6547 171.583 42.4316C170.921 42.2099 170.38 41.9947 169.96 41.786C168.592 41.1142 167.909 40.1907 167.909 39.0167C167.909 38.4324 168.08 37.9158 168.42 37.4684C168.761 37.021 169.243 36.6727 169.866 36.4249C170.489 36.1757 171.189 36.0518 171.968 36.0518C172.746 36.0518 173.406 36.1875 174.008 36.4575C174.609 36.7288 175.077 37.1136 175.411 37.6145C175.745 38.1154 175.91 38.6867 175.91 39.3298H173.373C173.373 38.8993 173.241 38.5654 172.978 38.3293C172.715 38.0919 172.359 37.9745 171.909 37.9745C171.459 37.9745 171.095 38.0749 170.833 38.2758C170.57 38.4767 170.438 38.7311 170.438 39.0402C170.438 39.3115 170.583 39.5567 170.873 39.7759C171.162 39.9963 171.672 40.2233 172.402 40.4581C173.131 40.6929 173.73 40.9446 174.2 41.2159C175.34 41.8733 175.91 42.7799 175.91 43.9356C175.91 44.8591 175.562 45.5844 174.867 46.1113C174.171 46.6383 173.217 46.9018 172.004 46.9018C171.149 46.9018 170.375 46.7479 169.681 46.4413C168.987 46.1348 168.466 45.7135 168.115 45.18C167.764 44.6465 167.59 44.0308 167.59 43.3343H170.141C170.141 43.9004 170.287 44.3165 170.579 44.5852C170.871 44.8539 171.346 44.9869 172.003 44.9869C172.423 44.9869 172.755 44.8969 172.999 44.7156C173.243 44.5343 173.365 44.28 173.365 43.9513L173.367 43.9473Z" fill="#EFEFEF"/>
<path d="M78.2615 56.6447V59.3722H77.3437V52.4054H79.912C80.6734 52.4054 81.2705 52.5998 81.7033 52.9898C82.1349 53.3785 82.3513 53.8937 82.3513 54.5355C82.3513 55.2125 82.1401 55.7329 81.7177 56.0982C81.2953 56.4634 80.6903 56.646 79.9029 56.646H78.2628L78.2615 56.6447ZM78.2615 55.8934H79.912C80.4035 55.8934 80.779 55.7773 81.041 55.5464C81.3031 55.3155 81.4335 54.9803 81.4335 54.542C81.4335 54.1037 81.3031 53.7946 81.041 53.5455C80.779 53.2963 80.4205 53.1672 79.9655 53.1567H78.2628V55.8934H78.2615Z" fill="#EFEFEF"/>
<path d="M86.076 56.5534H84.4398V59.3722H83.5168V52.4054H85.8218C86.6066 52.4054 87.2089 52.5841 87.6313 52.9415C88.0537 53.2989 88.2649 53.8194 88.2649 54.5016C88.2649 54.9359 88.1476 55.3129 87.9129 55.6351C87.6783 55.9573 87.3523 56.1986 86.9351 56.3577L88.5713 59.3148V59.3722H87.5857L86.0747 56.5534H86.076ZM84.4398 55.8021H85.8504C86.3067 55.8021 86.6692 55.6834 86.9391 55.4473C87.2089 55.2112 87.3432 54.8942 87.3432 54.4977C87.3432 54.0659 87.2154 53.7359 86.9586 53.505C86.7018 53.2754 86.3315 53.158 85.8465 53.1554H84.4411V55.8021H84.4398Z" fill="#EFEFEF"/>
<path d="M94.91 56.1139C94.91 56.7961 94.7953 57.3922 94.5658 57.9009C94.3364 58.4097 94.0104 58.7984 93.5906 59.0658C93.1695 59.3332 92.6793 59.4675 92.1174 59.4675C91.5555 59.4675 91.0823 59.3332 90.6586 59.0632C90.2349 58.7931 89.905 58.4097 89.6703 57.9101C89.4357 57.4105 89.3157 56.8326 89.3092 56.1752V55.673C89.3092 55.0026 89.4252 54.4117 89.6586 53.8977C89.8907 53.3838 90.2205 52.9912 90.6468 52.7186C91.0718 52.4459 91.5594 52.309 92.1083 52.309C92.6572 52.309 93.1578 52.4433 93.5841 52.7134C94.0091 52.9834 94.3377 53.3734 94.5671 53.886C94.7966 54.3986 94.9113 54.9934 94.9113 55.673V56.1139H94.91ZM93.9961 55.6639C93.9961 54.8382 93.8305 54.2043 93.4994 53.7621C93.1682 53.3199 92.7041 53.0995 92.1083 53.0995C91.5125 53.0995 91.0705 53.3199 90.7381 53.7621C90.4043 54.2043 90.2336 54.8173 90.2244 55.6013V56.1139C90.2244 56.9148 90.3926 57.5435 90.729 58.0014C91.0653 58.4592 91.5281 58.6875 92.1187 58.6875C92.7093 58.6875 93.1708 58.471 93.4955 58.0392C93.8201 57.6075 93.9883 56.9879 93.9974 56.1804V55.6639H93.9961Z" fill="#EFEFEF"/>
<path d="M99.2044 52.4054H100.127V57.3386C100.127 58.0052 99.9267 58.527 99.5278 58.9039C99.1288 59.2809 98.5943 59.4687 97.9281 59.4687C97.2619 59.4687 96.6974 59.2913 96.3115 58.9378C95.9256 58.5843 95.7326 58.0874 95.7326 57.4495H96.6505C96.6505 57.8487 96.76 58.1591 96.9777 58.3822C97.1954 58.6052 97.5122 58.7174 97.9268 58.7174C98.3062 58.7174 98.6126 58.5974 98.8472 58.3587C99.0819 58.12 99.2005 57.7847 99.2031 57.3543V52.4067L99.2044 52.4054Z" fill="#EFEFEF"/>
<path d="M105.627 56.1516H102.608V58.6209H106.114V59.3722H101.691V52.4054H106.067V53.1567H102.61V55.4016H105.628V56.1529L105.627 56.1516Z" fill="#EFEFEF"/>
<path d="M112.38 57.1613C112.294 57.8983 112.021 58.467 111.565 58.8675C111.107 59.2679 110.5 59.4675 109.74 59.4675C108.917 59.4675 108.258 59.1727 107.762 58.5818C107.267 57.9909 107.019 57.2018 107.019 56.2131V55.5426C107.019 54.8956 107.135 54.3256 107.366 53.8338C107.597 53.3421 107.925 52.9651 108.349 52.7016C108.772 52.4381 109.264 52.3064 109.822 52.3064C110.561 52.3064 111.154 52.5125 111.602 52.926C112.047 53.3395 112.308 53.9108 112.381 54.6413H111.458C111.379 54.0843 111.205 53.6812 110.939 53.4321C110.673 53.1829 110.3 53.0577 109.822 53.0577C109.235 53.0577 108.775 53.2742 108.443 53.7086C108.109 54.143 107.943 54.76 107.943 55.5622V56.2378C107.943 56.9944 108.101 57.597 108.417 58.0431C108.732 58.4905 109.174 58.7136 109.741 58.7136C110.251 58.7136 110.643 58.5975 110.916 58.3666C111.188 58.1357 111.369 57.7327 111.458 57.1587H112.381L112.38 57.1613Z" fill="#EFEFEF"/>
<path d="M118.305 53.1567H116.067V59.3722H115.153V53.1567H112.92V52.4054H118.305V53.1567Z" fill="#EFEFEF"/>
</svg>
