<svg width="208" height="88" viewBox="0 0 208 88" fill="none" xmlns="http://www.w3.org/2000/svg">
<rect x="0.5" y="0.5" width="207" height="87" rx="43.5" stroke="#1E1F35"/>
<path d="M69.3159 64.9462C78.0266 64.9462 83.6426 58.6413 83.6426 51.1519C83.6426 43.6626 78.0266 37.3577 69.3159 37.3577C60.6434 37.3577 55.0273 43.6626 55.0273 51.1519C55.0273 58.6413 60.6434 64.9462 69.3159 64.9462ZM69.3159 58.8706C64.9224 58.8706 62.057 55.3934 62.057 51.1519C62.057 46.9105 64.9224 43.4333 69.3159 43.4333C73.7476 43.4333 76.5748 46.9105 76.5748 51.1519C76.5748 55.3934 73.7476 58.8706 69.3159 58.8706Z" fill="#F7F7FA"/>
<path d="M88.0898 64.6379H90.8876C92.1393 64.6379 92.8755 63.9318 92.8755 62.6312V50.5915L101.932 63.3744C102.521 64.2291 103.257 64.6379 104.325 64.6379H106.018C107.306 64.6379 108.006 63.9318 108.006 62.6312V40.6327C108.006 39.3321 107.306 38.626 106.018 38.626H103.22C101.932 38.626 101.232 39.3321 101.232 40.6327V52.4866L92.2497 39.8895C91.6239 39.0348 90.8876 38.626 89.82 38.626H88.0898C86.8013 38.626 86.1018 39.3321 86.1018 40.6327V62.6312C86.1018 63.9318 86.8013 64.6379 88.0898 64.6379Z" fill="#F7F7FA"/>
<path d="M128.126 43.7772C129.463 43.7772 130.189 43.0512 130.189 41.7138V39.8415C130.189 38.5041 129.463 37.7781 128.126 37.7781H113.684C112.347 37.7781 111.621 38.5041 111.621 39.8415V62.4625C111.621 63.7998 112.347 64.5259 113.684 64.5259H128.126C129.463 64.5259 130.189 63.7998 130.189 62.4625V60.5901C130.189 59.2527 129.463 58.5267 128.126 58.5267H118.651V53.9414H126.597C127.935 53.9414 128.699 53.2154 128.699 51.878V50.617C128.699 49.2796 127.935 48.5536 126.597 48.5536H118.651V43.7772H128.126Z" fill="#F7F7FA"/>
<path d="M141.995 64.9462C147.764 64.9462 152.539 62.2332 152.539 56.769C152.463 53.2153 150.515 50.5406 144.937 48.63L141.728 47.4837C139.703 46.7577 139.206 45.8788 139.206 45.0382C139.206 43.5862 140.658 42.8219 142.263 42.8219C143.6 42.8219 144.555 43.3187 145.128 44.1593C145.93 45.1528 146.618 45.6113 147.802 45.2674L149.598 44.7707C150.897 44.3886 151.508 43.3951 150.821 42.1341C149.216 39.1155 146.312 37.3577 142.148 37.3577C136.608 37.3577 132.329 40.5675 132.329 45.5731C132.406 50.4641 137.563 52.5275 139.818 53.2536L143.065 54.4381C145.052 55.0877 145.701 56.043 145.701 57.0365C145.701 58.6031 144.211 59.482 141.995 59.482C139.932 59.482 138.442 58.6795 137.602 57.3804C136.914 56.2722 136.265 55.7755 135.08 56.043L133.17 56.5015C131.871 56.8072 131.183 57.7243 131.68 59.0234C133.17 62.7299 136.876 64.9462 141.995 64.9462Z" fill="#F7F7FA"/>
<path d="M67.1715 49.7734C67.1715 50.7411 66.6242 51.5256 65.9492 51.5256C65.2742 51.5256 64.727 50.7411 64.727 49.7734C64.727 48.8057 65.2742 48.0212 65.9492 48.0212C66.6242 48.0212 67.1715 48.8057 67.1715 49.7734Z" fill="#F7F7FA"/>
<path d="M73.8328 49.7734C73.8328 50.7411 73.2855 51.5256 72.6105 51.5256C71.9355 51.5256 71.3883 50.7411 71.3883 49.7734C71.3883 48.8057 71.9355 48.0212 72.6105 48.0212C73.2855 48.0212 73.8328 48.8057 73.8328 49.7734Z" fill="#F7F7FA"/>
<path d="M133.479 30.5543L136.341 34.5893C136.579 34.9248 136.965 35.1242 137.376 35.1242H139.148C139.632 35.1242 139.903 34.5651 139.602 34.1851L137.052 30.9936C136.969 30.8896 137.01 30.735 137.131 30.6787C138.484 30.0468 139.161 28.8786 139.161 27.189C139.161 25.896 138.703 24.8332 137.891 24.1956C137.114 23.5934 135.985 23.31 134.432 23.31H132.302C131.373 23.31 130.62 24.0634 130.62 24.9928V34.4313C130.62 34.814 130.93 35.1242 131.313 35.1242H132.786C133.169 35.1242 133.479 34.814 133.479 34.4313V30.5543ZM133.479 28.9425V25.6657H134.573C135.597 25.6657 136.267 26.3211 136.267 27.313C136.267 28.3403 135.579 28.9425 134.396 28.9425H133.479Z" fill="#F7F7FA"/>
<path d="M61.8636 35.024H63.1155C63.6907 35.024 64.0291 34.7194 64.0799 34.1611L64.5366 28.6789L66.702 34.178C66.8881 34.6857 67.2265 34.9056 67.7509 34.9056H68.2754C68.7998 34.9056 69.1381 34.6857 69.3243 34.178L71.4897 28.6789L71.9465 34.1611C71.9803 34.7194 72.3186 35.024 72.8939 35.024H74.1626C74.7717 35.024 75.0931 34.6857 75.0254 34.0595L74.095 24.0427C74.0612 23.4843 73.7228 23.1798 73.1646 23.1798H71.7604C71.2359 23.1798 70.9145 23.3998 70.7114 23.8904L68.0047 30.5571L65.3148 23.8904C65.1118 23.3998 64.7735 23.1798 64.2659 23.1798H62.8618C62.2866 23.1798 61.9651 23.4843 61.9144 24.0427L60.9839 34.0595C60.9332 34.6857 61.2546 35.024 61.8636 35.024Z" fill="#F7F7FA"/>
<path d="M76.9181 35.024H78.2208C78.7452 35.024 79.0835 34.7871 79.2528 34.2964L79.7602 32.9259H83.8204L84.3449 34.3134C84.531 34.7871 84.8863 35.024 85.3938 35.024H86.7641C87.4408 35.024 87.7114 34.601 87.4746 33.975L83.516 23.8904C83.3299 23.4167 82.9915 23.1798 82.467 23.1798H81.1475C80.623 23.1798 80.2678 23.4167 80.0817 23.8904L76.2076 33.975C75.9538 34.601 76.2414 35.024 76.9181 35.024ZM80.3016 30.4894L81.8072 26.4285L83.2453 30.4894H80.3016Z" fill="#F7F7FA"/>
<path d="M94.3875 35.2101C95.9269 35.2101 97.348 34.7026 98.566 33.7889C98.9552 33.5012 99.0905 33.1458 99.0905 32.6721V29.2711C99.0905 28.6789 98.769 28.3574 98.177 28.3574H94.4043C93.8122 28.3574 93.4908 28.6789 93.4908 29.2711V29.711C93.4908 30.3032 93.8122 30.6248 94.4043 30.6248H96.1469V32.1984C95.6562 32.4183 94.9457 32.5198 94.4043 32.5198C92.2558 32.5198 90.9701 30.9631 90.9701 29.1019C90.9701 27.1899 92.3574 25.684 94.3536 25.684C94.9118 25.684 95.504 25.7178 96.1976 26.0562C96.722 26.2762 97.1112 26.2424 97.4664 25.8194L98.0078 25.1595C98.38 24.6857 98.3461 24.2119 97.8216 23.8904C96.8236 23.2982 95.7239 22.9937 94.3536 22.9937C90.4964 22.9937 87.8572 25.7855 87.8572 29.1019C87.8572 32.4183 90.4626 35.2101 94.3875 35.2101Z" fill="#F7F7FA"/>
<path d="M107.323 35.024H108.609C109.184 35.024 109.523 34.7026 109.523 34.1103V28.6281L113.684 34.4488C113.955 34.8379 114.293 35.024 114.784 35.024H115.562C116.154 35.024 116.476 34.7026 116.476 34.1103V24.0935C116.476 23.5013 116.154 23.1798 115.562 23.1798H114.276C113.684 23.1798 113.363 23.5013 113.363 24.0935V29.4911L109.235 23.7551C108.947 23.3659 108.609 23.1798 108.118 23.1798H107.323C106.731 23.1798 106.41 23.5013 106.41 24.0935V34.1103C106.41 34.7026 106.731 35.024 107.323 35.024Z" fill="#F7F7FA"/>
<path d="M118.584 35.024H119.886C120.411 35.024 120.749 34.7871 120.918 34.2964L121.426 32.9259H125.486L126.011 34.3134C126.197 34.7871 126.552 35.024 127.059 35.024H128.43C129.107 35.024 129.377 34.601 129.14 33.975L125.182 23.8904C124.996 23.4167 124.657 23.1798 124.133 23.1798H122.813C122.289 23.1798 121.933 23.4167 121.747 23.8904L117.873 33.975C117.619 34.601 117.907 35.024 118.584 35.024ZM121.967 30.4894L123.473 26.4285L124.911 30.4894H121.967Z" fill="#F7F7FA"/>
<path d="M145.234 35.024H146.52C147.112 35.024 147.433 34.7026 147.433 34.1103V30.1848L151.511 24.2965C151.95 23.6705 151.697 23.1798 150.952 23.1798H149.328C148.838 23.1798 148.482 23.3659 148.229 23.7889L145.877 27.596L143.542 23.7889C143.272 23.3659 142.933 23.1798 142.443 23.1798H140.802C140.057 23.1798 139.787 23.6705 140.21 24.2965L144.321 30.2356V34.1103C144.321 34.7026 144.642 35.024 145.234 35.024Z" fill="#F7F7FA"/>
<path d="M55.9181 24.769C55.9181 23.8974 56.6246 23.1909 57.496 23.1909C58.3674 23.1909 59.0738 23.8974 59.0738 24.769V33.4486C59.0738 34.3202 58.3674 35.0268 57.496 35.0268C56.6246 35.0268 55.9181 34.3202 55.9181 33.4486V24.769Z" fill="#F7F7FA"/>
<path d="M101.051 24.7309C101.051 23.8562 101.76 23.147 102.635 23.147C103.509 23.147 104.218 23.8562 104.218 24.7309V33.4422C104.218 34.317 103.509 35.0261 102.635 35.0261C101.76 35.0261 101.051 34.317 101.051 33.4422V24.7309Z" fill="#F7F7FA"/>
</svg>
