<svg width="48" height="48" viewBox="0 0 48 48" fill="none" xmlns="http://www.w3.org/2000/svg">
<rect width="48" height="48" fill="white" fill-opacity="0.05"/>
<g clip-path="url(#clip0_5801_8775)">
<path d="M19.5502 33.75C28.6045 33.75 33.5583 26.2467 33.5583 19.7419C33.5583 19.5309 33.5536 19.3153 33.5442 19.1044C34.5079 18.4075 35.3395 17.5443 36 16.5553C35.1025 16.9546 34.1496 17.2154 33.1739 17.3287C34.2013 16.7129 34.9705 15.7455 35.3391 14.6058C34.3726 15.1786 33.3156 15.5826 32.2134 15.8006C31.4708 15.0116 30.489 14.4891 29.4197 14.3141C28.3504 14.139 27.2532 14.3211 26.2977 14.8321C25.3423 15.3431 24.5818 16.1547 24.1338 17.1413C23.6859 18.1279 23.5754 19.2346 23.8195 20.2903C21.8625 20.1921 19.9479 19.6837 18.2 18.7981C16.452 17.9125 14.9097 16.6694 13.673 15.1495C13.0444 16.2332 12.8521 17.5156 13.135 18.7361C13.418 19.9565 14.1551 21.0234 15.1964 21.72C14.4146 21.6952 13.65 21.4847 12.9656 21.1059V21.1669C12.9649 22.3041 13.3581 23.4066 14.0783 24.2868C14.7985 25.167 15.8013 25.7706 16.9162 25.995C16.1921 26.1931 15.432 26.222 14.6948 26.0794C15.0095 27.0574 15.6216 27.9129 16.4458 28.5263C17.27 29.1398 18.2651 29.4806 19.2923 29.5012C17.5484 30.8711 15.3942 31.6141 13.1766 31.6106C12.7833 31.61 12.3904 31.5859 12 31.5384C14.2529 32.9837 16.8735 33.7514 19.5502 33.75Z" fill="#7E7994"/>
</g>
<defs>
<clipPath id="clip0_5801_8775">
<rect width="24" height="24" fill="white" transform="translate(12 12)"/>
</clipPath>
</defs>
</svg>
