<svg width="48" height="48" viewBox="0 0 48 48" fill="none" xmlns="http://www.w3.org/2000/svg">
<rect width="48" height="48" fill="white" fill-opacity="0.05"/>
<path d="M16 32C15.45 32 14.979 31.804 14.587 31.412C14.195 31.02 13.9993 30.5493 14 30V18C14 17.45 14.196 16.979 14.588 16.587C14.98 16.195 15.4507 15.9993 16 16H32C32.55 16 33.021 16.196 33.413 16.588C33.805 16.98 34.0007 17.4507 34 18V30C34 30.55 33.804 31.021 33.412 31.413C33.02 31.805 32.5493 32.0007 32 32H16ZM24 24.825C24.0833 24.825 24.171 24.8123 24.263 24.787C24.355 24.7617 24.4423 24.7243 24.525 24.675L31.6 20.25C31.7333 20.1667 31.8333 20.0623 31.9 19.937C31.9667 19.8117 32 19.6743 32 19.525C32 19.1917 31.8583 18.9417 31.575 18.775C31.2917 18.6083 31 18.6167 30.7 18.8L24 23L17.3 18.8C17 18.6167 16.7083 18.6127 16.425 18.788C16.1417 18.9633 16 19.209 16 19.525C16 19.6917 16.0333 19.8377 16.1 19.963C16.1667 20.0883 16.2667 20.184 16.4 20.25L23.475 24.675C23.5583 24.725 23.646 24.7627 23.738 24.788C23.83 24.8133 23.9173 24.8257 24 24.825Z" fill="#7E7994"/>
</svg>
